<svg xmlns="http://www.w3.org/2000/svg" xmlns:xlink="http://www.w3.org/1999/xlink" width="360" zoomAndPan="magnify" viewBox="0 0 270 374.999991" height="500" preserveAspectRatio="xMidYMid meet" version="1.0"><defs><g/><clipPath id="7800ccb1bb"><path d="M 112.605469 224.253906 L 152.980469 224.253906 L 152.980469 266 L 112.605469 266 Z M 112.605469 224.253906 " clip-rule="nonzero"/></clipPath><clipPath id="cf84249b57"><path d="M 0 0 L 2.925781 0 L 2.925781 1 L 0 1 Z M 0 0 " clip-rule="nonzero"/></clipPath><clipPath id="760db15999"><path d="M 0 0 L 18 0 L 18 16.417969 L 0 16.417969 Z M 0 0 " clip-rule="nonzero"/></clipPath><clipPath id="6bfeed6927"><path d="M 1 0 L 34.113281 0 L 34.113281 1 L 1 1 Z M 1 0 " clip-rule="nonzero"/></clipPath><clipPath id="83fc25d17e"><path d="M 15.566406 0 L 49 0 L 49 16.417969 L 15.566406 16.417969 Z M 15.566406 0 " clip-rule="nonzero"/></clipPath><clipPath id="c982f62361"><path d="M 32 0 L 64.824219 0 L 64.824219 1 L 32 1 Z M 32 0 " clip-rule="nonzero"/></clipPath><clipPath id="1fefa55198"><path d="M 45.636719 0 L 79 0 L 79 16.417969 L 45.636719 16.417969 Z M 45.636719 0 " clip-rule="nonzero"/></clipPath><clipPath id="0c9536662a"><path d="M 62 0 L 94.890625 0 L 94.890625 1 L 62 1 Z M 62 0 " clip-rule="nonzero"/></clipPath><clipPath id="6c9a1b4fc9"><path d="M 76.347656 0 L 110 0 L 110 16.417969 L 76.347656 16.417969 Z M 76.347656 0 " clip-rule="nonzero"/></clipPath><clipPath id="88783d5ee6"><path d="M 92 0 L 125.601562 0 L 125.601562 1 L 92 1 Z M 92 0 " clip-rule="nonzero"/></clipPath><clipPath id="7245afc259"><path d="M 108.058594 0 L 141 0 L 141 16.417969 L 108.058594 16.417969 Z M 108.058594 0 " clip-rule="nonzero"/></clipPath><clipPath id="6fa4913a00"><path d="M 124 0 L 157.3125 0 L 157.3125 1 L 124 1 Z M 124 0 " clip-rule="nonzero"/></clipPath><clipPath id="ca016f1c40"><path d="M 139.054688 0 L 172 0 L 172 16.417969 L 139.054688 16.417969 Z M 139.054688 0 " clip-rule="nonzero"/></clipPath><clipPath id="5fc6767f61"><path d="M 155 0 L 188.3125 0 L 188.3125 1 L 155 1 Z M 155 0 " clip-rule="nonzero"/></clipPath><clipPath id="9c5f81f406"><path d="M 170.480469 0 L 204 0 L 204 16.417969 L 170.480469 16.417969 Z M 170.480469 0 " clip-rule="nonzero"/></clipPath><clipPath id="2875e83e0e"><path d="M 186 0 L 219.734375 0 L 219.734375 1 L 186 1 Z M 186 0 " clip-rule="nonzero"/></clipPath><clipPath id="08eecd26b0"><path d="M 201.476562 0 L 235 0 L 235 16.417969 L 201.476562 16.417969 Z M 201.476562 0 " clip-rule="nonzero"/></clipPath><clipPath id="572f7aa485"><path d="M 217 0 L 250.734375 0 L 250.734375 1 L 217 1 Z M 217 0 " clip-rule="nonzero"/></clipPath><clipPath id="1a5fe4fcf1"><path d="M 232.898438 0 L 266 0 L 266 16.417969 L 232.898438 16.417969 Z M 232.898438 0 " clip-rule="nonzero"/></clipPath><clipPath id="89b3e97ccb"><path d="M 263.898438 0 L 270 0 L 270 16.417969 L 263.898438 16.417969 Z M 263.898438 0 " clip-rule="nonzero"/></clipPath><clipPath id="f79919f7bc"><path d="M 0 360.003906 L 13.101562 360.003906 L 13.101562 375 L 0 375 Z M 0 360.003906 " clip-rule="nonzero"/></clipPath><clipPath id="a9576f87bd"><path d="M 10 360.003906 L 43.8125 360.003906 L 43.8125 375 L 10 375 Z M 10 360.003906 " clip-rule="nonzero"/></clipPath><clipPath id="fe934cdbbd"><path d="M 41 360.003906 L 73.878906 360.003906 L 73.878906 375 L 41 375 Z M 41 360.003906 " clip-rule="nonzero"/></clipPath><clipPath id="321f78a029"><path d="M 71 360.003906 L 104.589844 360.003906 L 104.589844 375 L 71 375 Z M 71 360.003906 " clip-rule="nonzero"/></clipPath><clipPath id="d0f0218c6f"><path d="M 103 360.003906 L 136.300781 360.003906 L 136.300781 375 L 103 375 Z M 103 360.003906 " clip-rule="nonzero"/></clipPath><clipPath id="d19b85acf1"><path d="M 134 360.003906 L 167.300781 360.003906 L 167.300781 375 L 134 375 Z M 134 360.003906 " clip-rule="nonzero"/></clipPath><clipPath id="e9cdbc953a"><path d="M 165 360.003906 L 198.722656 360.003906 L 198.722656 375 L 165 375 Z M 165 360.003906 " clip-rule="nonzero"/></clipPath><clipPath id="a45607f35a"><path d="M 196 360.003906 L 229.71875 360.003906 L 229.71875 375 L 196 375 Z M 196 360.003906 " clip-rule="nonzero"/></clipPath><clipPath id="e905cf351d"><path d="M 228 360.003906 L 261.144531 360.003906 L 261.144531 375 L 228 375 Z M 228 360.003906 " clip-rule="nonzero"/></clipPath><clipPath id="681ce1b5e2"><path d="M 259 360.003906 L 270 360.003906 L 270 375 L 259 375 Z M 259 360.003906 " clip-rule="nonzero"/></clipPath></defs><g clip-path="url(#7800ccb1bb)"><path fill="#ffffff" d="M 153.320312 239.027344 C 153.320312 241.015625 152.933594 242.945312 152.164062 244.761719 C 151.421875 246.515625 150.359375 248.09375 149.007812 249.445312 C 147.652344 250.800781 146.078125 251.863281 144.324219 252.609375 C 142.503906 253.375 140.574219 253.773438 138.585938 253.773438 L 117.628906 253.773438 L 117.628906 260.957031 L 142.648438 260.957031 L 142.648438 265.984375 L 112.605469 265.984375 L 112.605469 236.5 L 134.976562 236.5 C 135.746094 235.460938 136.996094 234.761719 138.40625 234.761719 C 140.746094 234.761719 142.648438 236.667969 142.648438 239.011719 C 142.648438 241.355469 140.746094 243.253906 138.40625 243.253906 C 137.003906 243.253906 135.765625 242.570312 134.992188 241.527344 L 117.628906 241.527344 L 117.628906 248.75 L 138.585938 248.75 C 143.945312 248.75 148.304688 244.390625 148.304688 239.03125 C 148.304688 233.675781 143.945312 229.316406 138.585938 229.316406 L 112.679688 229.316406 L 112.679688 224.289062 L 138.585938 224.289062 C 140.574219 224.289062 142.503906 224.679688 144.324219 225.449219 C 146.078125 226.191406 147.65625 227.253906 149.007812 228.605469 C 150.359375 229.957031 151.421875 231.535156 152.164062 233.289062 C 152.929688 235.105469 153.320312 237.039062 153.320312 239.027344 Z M 153.320312 239.027344 " fill-opacity="1" fill-rule="nonzero"/></g><g fill="#ffffff" fill-opacity="1"><g transform="translate(71.805599, 289.431689)"><g><path d="M 2.328125 -3.125 L 2.328125 -1.171875 L 5.71875 -1.171875 L 5.71875 0 L 0.921875 0 L 0.921875 -7.109375 L 5.640625 -7.109375 L 5.640625 -5.921875 L 2.328125 -5.921875 L 2.328125 -4.265625 L 5.21875 -4.265625 L 5.21875 -3.125 Z M 2.328125 -3.125 "/></g></g><g transform="translate(77.916637, 289.431689)"><g><path d="M 0.765625 0 L 0.765625 -5.359375 L 2.0625 -5.359375 L 2.0625 -4.640625 L 2.171875 -4.625 C 2.347656 -4.90625 2.550781 -5.113281 2.78125 -5.25 C 3.019531 -5.394531 3.320312 -5.46875 3.6875 -5.46875 C 4.09375 -5.46875 4.414062 -5.382812 4.65625 -5.21875 C 4.90625 -5.0625 5.085938 -4.828125 5.203125 -4.515625 L 5.296875 -4.515625 C 5.460938 -4.835938 5.675781 -5.078125 5.9375 -5.234375 C 6.195312 -5.390625 6.523438 -5.46875 6.921875 -5.46875 C 8.023438 -5.46875 8.578125 -4.847656 8.578125 -3.609375 L 8.578125 0 L 7.234375 0 L 7.234375 -3.4375 C 7.234375 -3.75 7.171875 -3.972656 7.046875 -4.109375 C 6.921875 -4.253906 6.722656 -4.328125 6.453125 -4.328125 C 5.710938 -4.328125 5.34375 -3.832031 5.34375 -2.84375 L 5.34375 0 L 4 0 L 4 -3.4375 C 4 -3.75 3.9375 -3.972656 3.8125 -4.109375 C 3.6875 -4.253906 3.488281 -4.328125 3.21875 -4.328125 C 2.875 -4.328125 2.601562 -4.207031 2.40625 -3.96875 C 2.21875 -3.738281 2.125 -3.375 2.125 -2.875 L 2.125 0 Z M 0.765625 0 "/></g></g><g transform="translate(87.192582, 289.431689)"><g><path d="M 0.765625 2.171875 L 0.765625 -5.359375 L 2.125 -5.359375 L 2.125 -4.65625 L 2.21875 -4.640625 C 2.375 -4.910156 2.582031 -5.113281 2.84375 -5.25 C 3.113281 -5.394531 3.429688 -5.46875 3.796875 -5.46875 C 4.222656 -5.46875 4.597656 -5.363281 4.921875 -5.15625 C 5.242188 -4.945312 5.492188 -4.632812 5.671875 -4.21875 C 5.847656 -3.800781 5.9375 -3.285156 5.9375 -2.671875 C 5.9375 -2.066406 5.84375 -1.554688 5.65625 -1.140625 C 5.46875 -0.722656 5.203125 -0.410156 4.859375 -0.203125 C 4.523438 0.00390625 4.140625 0.109375 3.703125 0.109375 C 3.367188 0.109375 3.078125 0.0507812 2.828125 -0.0625 C 2.585938 -0.175781 2.382812 -0.351562 2.21875 -0.59375 L 2.125 -0.5625 L 2.125 2.171875 Z M 3.328125 -1.046875 C 3.734375 -1.046875 4.035156 -1.175781 4.234375 -1.4375 C 4.441406 -1.695312 4.546875 -2.109375 4.546875 -2.671875 C 4.546875 -3.242188 4.441406 -3.660156 4.234375 -3.921875 C 4.035156 -4.191406 3.734375 -4.328125 3.328125 -4.328125 C 2.953125 -4.328125 2.65625 -4.1875 2.4375 -3.90625 C 2.21875 -3.632812 2.109375 -3.222656 2.109375 -2.671875 C 2.109375 -2.128906 2.21875 -1.722656 2.4375 -1.453125 C 2.65625 -1.179688 2.953125 -1.046875 3.328125 -1.046875 Z M 3.328125 -1.046875 "/></g></g><g transform="translate(93.614764, 289.431689)"><g><path d="M 3.109375 0.109375 C 2.585938 0.109375 2.128906 0 1.734375 -0.21875 C 1.335938 -0.4375 1.03125 -0.753906 0.8125 -1.171875 C 0.59375 -1.585938 0.484375 -2.085938 0.484375 -2.671875 C 0.484375 -3.265625 0.59375 -3.769531 0.8125 -4.1875 C 1.03125 -4.601562 1.335938 -4.921875 1.734375 -5.140625 C 2.128906 -5.359375 2.585938 -5.46875 3.109375 -5.46875 C 3.640625 -5.46875 4.101562 -5.359375 4.5 -5.140625 C 4.894531 -4.921875 5.203125 -4.601562 5.421875 -4.1875 C 5.640625 -3.769531 5.75 -3.265625 5.75 -2.671875 C 5.75 -2.085938 5.640625 -1.585938 5.421875 -1.171875 C 5.203125 -0.753906 4.894531 -0.4375 4.5 -0.21875 C 4.101562 0 3.640625 0.109375 3.109375 0.109375 Z M 3.109375 -1.046875 C 3.941406 -1.046875 4.359375 -1.585938 4.359375 -2.671875 C 4.359375 -3.242188 4.25 -3.660156 4.03125 -3.921875 C 3.820312 -4.191406 3.515625 -4.328125 3.109375 -4.328125 C 2.273438 -4.328125 1.859375 -3.773438 1.859375 -2.671875 C 1.859375 -1.585938 2.273438 -1.046875 3.109375 -1.046875 Z M 3.109375 -1.046875 "/></g></g><g transform="translate(99.847343, 289.431689)"><g><path d="M 2.875 0 L 1.46875 0 L 0.1875 -5.359375 L 1.4375 -5.359375 L 2.234375 -1.734375 L 2.328125 -1.734375 L 3.359375 -5.359375 L 4.515625 -5.359375 L 5.578125 -1.734375 L 5.671875 -1.734375 L 6.4375 -5.359375 L 7.65625 -5.359375 L 6.390625 0 L 4.984375 0 L 3.953125 -3.65625 L 3.859375 -3.65625 Z M 2.875 0 "/></g></g><g transform="translate(107.689114, 289.431689)"><g><path d="M 5.296875 -2.375 L 1.859375 -2.375 C 1.890625 -1.90625 2.019531 -1.566406 2.25 -1.359375 C 2.476562 -1.148438 2.785156 -1.046875 3.171875 -1.046875 C 3.484375 -1.046875 3.734375 -1.101562 3.921875 -1.21875 C 4.117188 -1.332031 4.273438 -1.503906 4.390625 -1.734375 L 4.484375 -1.734375 L 5.390625 -1.15625 C 5.210938 -0.78125 4.945312 -0.472656 4.59375 -0.234375 C 4.238281 -0.00390625 3.765625 0.109375 3.171875 0.109375 C 2.617188 0.109375 2.140625 0.00390625 1.734375 -0.203125 C 1.335938 -0.421875 1.03125 -0.738281 0.8125 -1.15625 C 0.59375 -1.570312 0.484375 -2.078125 0.484375 -2.671875 C 0.484375 -3.285156 0.597656 -3.800781 0.828125 -4.21875 C 1.054688 -4.632812 1.363281 -4.945312 1.75 -5.15625 C 2.144531 -5.363281 2.585938 -5.46875 3.078125 -5.46875 C 3.835938 -5.46875 4.414062 -5.265625 4.8125 -4.859375 C 5.21875 -4.453125 5.421875 -3.863281 5.421875 -3.09375 C 5.421875 -2.8125 5.414062 -2.59375 5.40625 -2.4375 Z M 4.140625 -3.25 C 4.128906 -3.65625 4.035156 -3.953125 3.859375 -4.140625 C 3.679688 -4.328125 3.421875 -4.421875 3.078125 -4.421875 C 2.398438 -4.421875 2 -4.03125 1.875 -3.25 Z M 4.140625 -3.25 "/></g></g><g transform="translate(113.51818, 289.431689)"><g><path d="M 0.765625 0 L 0.765625 -5.359375 L 2.078125 -5.359375 L 2.078125 -4.5625 L 2.1875 -4.546875 C 2.3125 -4.835938 2.476562 -5.050781 2.6875 -5.1875 C 2.90625 -5.332031 3.160156 -5.40625 3.453125 -5.40625 C 3.765625 -5.40625 4 -5.351562 4.15625 -5.25 L 3.921875 -4.09375 L 3.828125 -4.078125 C 3.734375 -4.109375 3.644531 -4.128906 3.5625 -4.140625 C 3.488281 -4.160156 3.394531 -4.171875 3.28125 -4.171875 C 2.90625 -4.171875 2.617188 -4.035156 2.421875 -3.765625 C 2.222656 -3.503906 2.125 -3.082031 2.125 -2.5 L 2.125 0 Z M 0.765625 0 "/></g></g><g transform="translate(117.723469, 289.431689)"><g><path d="M 3.671875 -7.109375 C 4.179688 -7.109375 4.613281 -7.015625 4.96875 -6.828125 C 5.332031 -6.640625 5.601562 -6.378906 5.78125 -6.046875 C 5.96875 -5.710938 6.0625 -5.320312 6.0625 -4.875 C 6.0625 -4.425781 5.96875 -4.035156 5.78125 -3.703125 C 5.601562 -3.367188 5.332031 -3.109375 4.96875 -2.921875 C 4.613281 -2.742188 4.179688 -2.65625 3.671875 -2.65625 L 2.328125 -2.65625 L 2.328125 0 L 0.921875 0 L 0.921875 -7.109375 Z M 3.484375 -3.765625 C 4.265625 -3.765625 4.65625 -4.132812 4.65625 -4.875 C 4.65625 -5.625 4.265625 -6 3.484375 -6 L 2.328125 -6 L 2.328125 -3.765625 Z M 3.484375 -3.765625 "/></g></g><g transform="translate(124.218575, 289.431689)"><g><path d="M 2.21875 0.109375 C 1.738281 0.109375 1.367188 -0.0195312 1.109375 -0.28125 C 0.859375 -0.550781 0.734375 -0.953125 0.734375 -1.484375 L 0.734375 -7.515625 L 2.078125 -7.515625 L 2.078125 -1.53125 C 2.078125 -1.207031 2.21875 -1.046875 2.5 -1.046875 C 2.570312 -1.046875 2.648438 -1.054688 2.734375 -1.078125 L 2.8125 -1.0625 L 2.9375 -0.03125 C 2.851562 0.0078125 2.75 0.0390625 2.625 0.0625 C 2.507812 0.09375 2.375 0.109375 2.21875 0.109375 Z M 2.21875 0.109375 "/></g></g><g transform="translate(127.300833, 289.431689)"><g><path d="M 2.09375 0.109375 C 1.75 0.109375 1.445312 0.046875 1.1875 -0.078125 C 0.9375 -0.210938 0.742188 -0.398438 0.609375 -0.640625 C 0.472656 -0.890625 0.40625 -1.1875 0.40625 -1.53125 C 0.40625 -1.84375 0.472656 -2.109375 0.609375 -2.328125 C 0.742188 -2.546875 0.953125 -2.722656 1.234375 -2.859375 C 1.523438 -2.992188 1.898438 -3.097656 2.359375 -3.171875 C 2.679688 -3.222656 2.925781 -3.28125 3.09375 -3.34375 C 3.257812 -3.40625 3.367188 -3.472656 3.421875 -3.546875 C 3.484375 -3.628906 3.515625 -3.726562 3.515625 -3.84375 C 3.515625 -4.019531 3.453125 -4.148438 3.328125 -4.234375 C 3.210938 -4.328125 3.015625 -4.375 2.734375 -4.375 C 2.441406 -4.375 2.160156 -4.304688 1.890625 -4.171875 C 1.617188 -4.046875 1.382812 -3.875 1.1875 -3.65625 L 1.09375 -3.65625 L 0.53125 -4.5 C 0.800781 -4.800781 1.128906 -5.035156 1.515625 -5.203125 C 1.910156 -5.378906 2.34375 -5.46875 2.8125 -5.46875 C 3.519531 -5.46875 4.03125 -5.316406 4.34375 -5.015625 C 4.664062 -4.710938 4.828125 -4.285156 4.828125 -3.734375 L 4.828125 -1.40625 C 4.828125 -1.164062 4.929688 -1.046875 5.140625 -1.046875 C 5.222656 -1.046875 5.300781 -1.054688 5.375 -1.078125 L 5.453125 -1.0625 L 5.546875 -0.125 C 5.472656 -0.0703125 5.367188 -0.03125 5.234375 0 C 5.097656 0.0195312 4.953125 0.03125 4.796875 0.03125 C 4.472656 0.03125 4.222656 -0.0234375 4.046875 -0.140625 C 3.867188 -0.265625 3.738281 -0.457031 3.65625 -0.71875 L 3.5625 -0.734375 C 3.289062 -0.171875 2.800781 0.109375 2.09375 0.109375 Z M 2.515625 -0.90625 C 2.828125 -0.90625 3.078125 -1.007812 3.265625 -1.21875 C 3.453125 -1.425781 3.546875 -1.71875 3.546875 -2.09375 L 3.546875 -2.640625 L 3.453125 -2.65625 C 3.367188 -2.59375 3.257812 -2.535156 3.125 -2.484375 C 3 -2.441406 2.8125 -2.398438 2.5625 -2.359375 C 2.269531 -2.304688 2.0625 -2.222656 1.9375 -2.109375 C 1.8125 -1.992188 1.75 -1.828125 1.75 -1.609375 C 1.75 -1.378906 1.816406 -1.203125 1.953125 -1.078125 C 2.085938 -0.960938 2.273438 -0.90625 2.515625 -0.90625 Z M 2.515625 -0.90625 "/></g></g><g transform="translate(132.954881, 289.431689)"><g><path d="M 1.1875 2.28125 C 0.957031 2.28125 0.75 2.257812 0.5625 2.21875 C 0.375 2.1875 0.222656 2.140625 0.109375 2.078125 L 0.328125 0.984375 L 0.40625 0.96875 C 0.488281 1.007812 0.585938 1.039062 0.703125 1.0625 C 0.828125 1.09375 0.953125 1.109375 1.078125 1.109375 C 1.296875 1.109375 1.476562 1.078125 1.625 1.015625 C 1.769531 0.960938 1.890625 0.867188 1.984375 0.734375 C 2.085938 0.609375 2.175781 0.425781 2.25 0.1875 L 0.109375 -5.359375 L 1.53125 -5.359375 L 2.859375 -1.640625 L 2.96875 -1.640625 L 4.265625 -5.359375 L 5.640625 -5.359375 L 3.484375 0.328125 C 3.316406 0.796875 3.128906 1.164062 2.921875 1.4375 C 2.710938 1.71875 2.46875 1.925781 2.1875 2.0625 C 1.914062 2.207031 1.582031 2.28125 1.1875 2.28125 Z M 1.1875 2.28125 "/></g></g><g transform="translate(138.711023, 289.431689)"><g/></g><g transform="translate(141.059179, 289.431689)"><g><path d="M 3.15625 0.109375 C 2.65625 0.109375 2.210938 0.046875 1.828125 -0.078125 C 1.453125 -0.203125 1.132812 -0.363281 0.875 -0.5625 C 0.613281 -0.757812 0.414062 -0.972656 0.28125 -1.203125 L 1.0625 -2.15625 L 1.1875 -2.15625 C 1.394531 -1.832031 1.660156 -1.578125 1.984375 -1.390625 C 2.316406 -1.203125 2.707031 -1.109375 3.15625 -1.109375 C 3.53125 -1.109375 3.8125 -1.1875 4 -1.34375 C 4.1875 -1.507812 4.28125 -1.726562 4.28125 -2 C 4.28125 -2.175781 4.25 -2.316406 4.1875 -2.421875 C 4.132812 -2.535156 4.035156 -2.632812 3.890625 -2.71875 C 3.742188 -2.800781 3.550781 -2.875 3.3125 -2.9375 L 2.390625 -3.140625 C 1.753906 -3.285156 1.28125 -3.523438 0.96875 -3.859375 C 0.65625 -4.203125 0.5 -4.644531 0.5 -5.1875 C 0.5 -5.582031 0.597656 -5.929688 0.796875 -6.234375 C 1.003906 -6.546875 1.296875 -6.785156 1.671875 -6.953125 C 2.054688 -7.117188 2.519531 -7.203125 3.0625 -7.203125 C 3.601562 -7.203125 4.066406 -7.128906 4.453125 -6.984375 C 4.847656 -6.847656 5.179688 -6.628906 5.453125 -6.328125 L 4.765625 -5.375 L 4.640625 -5.375 C 4.429688 -5.582031 4.195312 -5.738281 3.9375 -5.84375 C 3.6875 -5.945312 3.394531 -6 3.0625 -6 C 2.675781 -6 2.378906 -5.929688 2.171875 -5.796875 C 1.972656 -5.660156 1.875 -5.472656 1.875 -5.234375 C 1.875 -5.015625 1.941406 -4.835938 2.078125 -4.703125 C 2.222656 -4.566406 2.46875 -4.460938 2.8125 -4.390625 L 3.75 -4.203125 C 4.4375 -4.054688 4.9375 -3.804688 5.25 -3.453125 C 5.5625 -3.109375 5.71875 -2.65625 5.71875 -2.09375 C 5.71875 -1.644531 5.617188 -1.253906 5.421875 -0.921875 C 5.234375 -0.597656 4.945312 -0.34375 4.5625 -0.15625 C 4.175781 0.0195312 3.707031 0.109375 3.15625 0.109375 Z M 3.15625 0.109375 "/></g></g><g transform="translate(147.165356, 289.431689)"><g><path d="M 3.703125 -1.28125 L 4.046875 -0.28125 C 3.898438 -0.164062 3.71875 -0.0703125 3.5 0 C 3.28125 0.0703125 3.03125 0.109375 2.75 0.109375 C 2.164062 0.109375 1.722656 -0.046875 1.421875 -0.359375 C 1.128906 -0.679688 0.984375 -1.144531 0.984375 -1.75 L 0.984375 -4.296875 L 0.15625 -4.296875 L 0.15625 -5.359375 L 0.984375 -5.359375 L 0.984375 -6.40625 L 2.328125 -6.625 L 2.328125 -5.359375 L 3.84375 -5.359375 L 3.84375 -4.296875 L 2.328125 -4.296875 L 2.328125 -1.84375 C 2.328125 -1.582031 2.378906 -1.390625 2.484375 -1.265625 C 2.597656 -1.140625 2.757812 -1.078125 2.96875 -1.078125 C 3.207031 -1.078125 3.414062 -1.144531 3.59375 -1.28125 Z M 3.703125 -1.28125 "/></g></g><g transform="translate(151.331752, 289.431689)"><g><path d="M 2.453125 0.109375 C 1.847656 0.109375 1.398438 -0.0546875 1.109375 -0.390625 C 0.828125 -0.722656 0.6875 -1.195312 0.6875 -1.8125 L 0.6875 -5.359375 L 2.03125 -5.359375 L 2.03125 -1.984375 C 2.03125 -1.648438 2.097656 -1.40625 2.234375 -1.25 C 2.378906 -1.101562 2.601562 -1.03125 2.90625 -1.03125 C 3.269531 -1.03125 3.554688 -1.148438 3.765625 -1.390625 C 3.972656 -1.640625 4.078125 -2.03125 4.078125 -2.5625 L 4.078125 -5.359375 L 5.421875 -5.359375 L 5.421875 0 L 4.140625 0 L 4.140625 -0.78125 L 4.03125 -0.8125 C 3.863281 -0.5 3.65625 -0.265625 3.40625 -0.109375 C 3.15625 0.0351562 2.835938 0.109375 2.453125 0.109375 Z M 2.453125 0.109375 "/></g></g><g transform="translate(157.535162, 289.431689)"><g><path d="M 2.65625 0.109375 C 2.226562 0.109375 1.847656 0.00390625 1.515625 -0.203125 C 1.191406 -0.410156 0.9375 -0.722656 0.75 -1.140625 C 0.570312 -1.554688 0.484375 -2.066406 0.484375 -2.671875 C 0.484375 -3.285156 0.578125 -3.800781 0.765625 -4.21875 C 0.953125 -4.632812 1.210938 -4.945312 1.546875 -5.15625 C 1.890625 -5.363281 2.28125 -5.46875 2.71875 -5.46875 C 3.050781 -5.46875 3.335938 -5.410156 3.578125 -5.296875 C 3.828125 -5.179688 4.035156 -5 4.203125 -4.75 L 4.3125 -4.78125 L 4.3125 -7.515625 L 5.65625 -7.515625 L 5.65625 0 L 4.3125 0 L 4.3125 -0.6875 L 4.203125 -0.71875 C 4.054688 -0.457031 3.851562 -0.253906 3.59375 -0.109375 C 3.332031 0.0351562 3.019531 0.109375 2.65625 0.109375 Z M 3.09375 -1.046875 C 3.46875 -1.046875 3.765625 -1.179688 3.984375 -1.453125 C 4.203125 -1.722656 4.3125 -2.128906 4.3125 -2.671875 C 4.3125 -3.222656 4.203125 -3.632812 3.984375 -3.90625 C 3.765625 -4.1875 3.46875 -4.328125 3.09375 -4.328125 C 2.695312 -4.328125 2.390625 -4.191406 2.171875 -3.921875 C 1.960938 -3.660156 1.859375 -3.242188 1.859375 -2.671875 C 1.859375 -2.109375 1.960938 -1.695312 2.171875 -1.4375 C 2.390625 -1.175781 2.695312 -1.046875 3.09375 -1.046875 Z M 3.09375 -1.046875 "/></g></g><g transform="translate(163.962205, 289.431689)"><g><path d="M 1.4375 -6 C 1.195312 -6 1 -6.070312 0.84375 -6.21875 C 0.695312 -6.363281 0.625 -6.554688 0.625 -6.796875 C 0.625 -7.023438 0.695312 -7.210938 0.84375 -7.359375 C 1 -7.503906 1.195312 -7.578125 1.4375 -7.578125 C 1.601562 -7.578125 1.75 -7.539062 1.875 -7.46875 C 2 -7.40625 2.097656 -7.3125 2.171875 -7.1875 C 2.242188 -7.070312 2.28125 -6.941406 2.28125 -6.796875 C 2.28125 -6.640625 2.242188 -6.5 2.171875 -6.375 C 2.097656 -6.257812 2 -6.164062 1.875 -6.09375 C 1.75 -6.03125 1.601562 -6 1.4375 -6 Z M 0.765625 0 L 0.765625 -5.359375 L 2.125 -5.359375 L 2.125 0 Z M 0.765625 0 "/></g></g><g transform="translate(166.849999, 289.431689)"><g><path d="M 3.109375 0.109375 C 2.585938 0.109375 2.128906 0 1.734375 -0.21875 C 1.335938 -0.4375 1.03125 -0.753906 0.8125 -1.171875 C 0.59375 -1.585938 0.484375 -2.085938 0.484375 -2.671875 C 0.484375 -3.265625 0.59375 -3.769531 0.8125 -4.1875 C 1.03125 -4.601562 1.335938 -4.921875 1.734375 -5.140625 C 2.128906 -5.359375 2.585938 -5.46875 3.109375 -5.46875 C 3.640625 -5.46875 4.101562 -5.359375 4.5 -5.140625 C 4.894531 -4.921875 5.203125 -4.601562 5.421875 -4.1875 C 5.640625 -3.769531 5.75 -3.265625 5.75 -2.671875 C 5.75 -2.085938 5.640625 -1.585938 5.421875 -1.171875 C 5.203125 -0.753906 4.894531 -0.4375 4.5 -0.21875 C 4.101562 0 3.640625 0.109375 3.109375 0.109375 Z M 3.109375 -1.046875 C 3.941406 -1.046875 4.359375 -1.585938 4.359375 -2.671875 C 4.359375 -3.242188 4.25 -3.660156 4.03125 -3.921875 C 3.820312 -4.191406 3.515625 -4.328125 3.109375 -4.328125 C 2.273438 -4.328125 1.859375 -3.773438 1.859375 -2.671875 C 1.859375 -1.585938 2.273438 -1.046875 3.109375 -1.046875 Z M 3.109375 -1.046875 "/></g></g><g transform="translate(173.082578, 289.431689)"><g><path d="M 2.5 0.109375 C 2.132812 0.109375 1.800781 0.0664062 1.5 -0.015625 C 1.195312 -0.109375 0.9375 -0.226562 0.71875 -0.375 C 0.507812 -0.53125 0.351562 -0.707031 0.25 -0.90625 L 0.984375 -1.703125 L 1.09375 -1.703125 C 1.269531 -1.460938 1.476562 -1.28125 1.71875 -1.15625 C 1.96875 -1.039062 2.234375 -0.984375 2.515625 -0.984375 C 2.773438 -0.984375 2.972656 -1.03125 3.109375 -1.125 C 3.242188 -1.21875 3.3125 -1.351562 3.3125 -1.53125 C 3.3125 -1.664062 3.257812 -1.78125 3.15625 -1.875 C 3.0625 -1.96875 2.910156 -2.039062 2.703125 -2.09375 L 2 -2.265625 C 1.46875 -2.390625 1.078125 -2.582031 0.828125 -2.84375 C 0.585938 -3.101562 0.46875 -3.429688 0.46875 -3.828125 C 0.46875 -4.160156 0.550781 -4.453125 0.71875 -4.703125 C 0.882812 -4.953125 1.125 -5.140625 1.4375 -5.265625 C 1.75 -5.398438 2.109375 -5.46875 2.515625 -5.46875 C 2.992188 -5.46875 3.390625 -5.394531 3.703125 -5.25 C 4.023438 -5.113281 4.28125 -4.925781 4.46875 -4.6875 L 3.734375 -3.921875 L 3.640625 -3.921875 C 3.492188 -4.085938 3.328125 -4.207031 3.140625 -4.28125 C 2.953125 -4.363281 2.742188 -4.40625 2.515625 -4.40625 C 1.984375 -4.40625 1.71875 -4.238281 1.71875 -3.90625 C 1.71875 -3.769531 1.765625 -3.65625 1.859375 -3.5625 C 1.960938 -3.476562 2.140625 -3.410156 2.390625 -3.359375 L 3.046875 -3.203125 C 3.597656 -3.085938 4 -2.898438 4.25 -2.640625 C 4.5 -2.390625 4.625 -2.046875 4.625 -1.609375 C 4.625 -1.265625 4.535156 -0.960938 4.359375 -0.703125 C 4.191406 -0.453125 3.945312 -0.253906 3.625 -0.109375 C 3.3125 0.0351562 2.9375 0.109375 2.5 0.109375 Z M 2.5 0.109375 "/></g></g><g transform="translate(178.026832, 289.431689)"><g/></g><g transform="translate(180.374988, 289.431689)"><g><path d="M 2.328125 0 L 0.921875 0 L 0.921875 -7.109375 L 2.328125 -7.109375 Z M 2.328125 0 "/></g></g><g transform="translate(183.632264, 289.431689)"><g><path d="M 0.765625 0 L 0.765625 -5.359375 L 2.0625 -5.359375 L 2.0625 -4.578125 L 2.171875 -4.546875 C 2.503906 -5.160156 3.046875 -5.46875 3.796875 -5.46875 C 4.410156 -5.46875 4.863281 -5.296875 5.15625 -4.953125 C 5.445312 -4.617188 5.59375 -4.128906 5.59375 -3.484375 L 5.59375 0 L 4.25 0 L 4.25 -3.3125 C 4.25 -3.675781 4.175781 -3.9375 4.03125 -4.09375 C 3.882812 -4.25 3.65625 -4.328125 3.34375 -4.328125 C 2.957031 -4.328125 2.65625 -4.203125 2.4375 -3.953125 C 2.226562 -3.703125 2.125 -3.3125 2.125 -2.78125 L 2.125 0 Z M 0.765625 0 "/></g></g><g transform="translate(189.913459, 289.431689)"><g><path d="M 3.125 0.109375 C 2.601562 0.109375 2.144531 0 1.75 -0.21875 C 1.351562 -0.4375 1.039062 -0.753906 0.8125 -1.171875 C 0.59375 -1.585938 0.484375 -2.085938 0.484375 -2.671875 C 0.484375 -3.265625 0.59375 -3.769531 0.8125 -4.1875 C 1.039062 -4.601562 1.351562 -4.921875 1.75 -5.140625 C 2.144531 -5.359375 2.59375 -5.46875 3.09375 -5.46875 C 4.226562 -5.46875 4.953125 -5.054688 5.265625 -4.234375 L 4.34375 -3.578125 L 4.25 -3.578125 C 4.132812 -3.828125 3.988281 -4.015625 3.8125 -4.140625 C 3.632812 -4.265625 3.394531 -4.328125 3.09375 -4.328125 C 2.707031 -4.328125 2.40625 -4.191406 2.1875 -3.921875 C 1.96875 -3.648438 1.859375 -3.234375 1.859375 -2.671875 C 1.859375 -2.128906 1.96875 -1.722656 2.1875 -1.453125 C 2.414062 -1.179688 2.726562 -1.046875 3.125 -1.046875 C 3.414062 -1.046875 3.660156 -1.125 3.859375 -1.28125 C 4.066406 -1.4375 4.210938 -1.660156 4.296875 -1.953125 L 4.40625 -1.96875 L 5.359375 -1.4375 C 5.222656 -0.988281 4.96875 -0.617188 4.59375 -0.328125 C 4.226562 -0.0351562 3.738281 0.109375 3.125 0.109375 Z M 3.125 0.109375 "/></g></g><g transform="translate(195.441105, 289.431689)"><g><path d="M 1.375 0.046875 C 1.195312 0.046875 1.039062 0.0078125 0.90625 -0.0625 C 0.78125 -0.132812 0.679688 -0.226562 0.609375 -0.34375 C 0.546875 -0.46875 0.515625 -0.609375 0.515625 -0.765625 C 0.515625 -0.921875 0.546875 -1.0625 0.609375 -1.1875 C 0.679688 -1.3125 0.78125 -1.40625 0.90625 -1.46875 C 1.039062 -1.539062 1.195312 -1.578125 1.375 -1.578125 C 1.550781 -1.578125 1.703125 -1.539062 1.828125 -1.46875 C 1.960938 -1.40625 2.0625 -1.3125 2.125 -1.1875 C 2.195312 -1.0625 2.234375 -0.921875 2.234375 -0.765625 C 2.234375 -0.535156 2.15625 -0.34375 2 -0.1875 C 1.84375 -0.03125 1.632812 0.046875 1.375 0.046875 Z M 1.375 0.046875 "/></g></g></g><g fill="#ffffff" fill-opacity="1"><g transform="translate(69.589502, 194.172907)"><g><path d="M 6.34375 -1.578125 L 6.34375 -12.6875 L 3.171875 -12.6875 L 3.171875 -1.578125 Z M 0 0 L 0 -14.265625 L 7.921875 -14.265625 L 7.921875 -12.6875 L 9.515625 -12.6875 L 9.515625 -1.578125 L 7.921875 -1.578125 L 7.921875 0 Z M 0 0 "/></g></g></g><g fill="#ffffff" fill-opacity="1"><g transform="translate(81.953495, 194.172907)"><g><path d="M 0 0 L 0 -14.265625 L 9.515625 -14.265625 L 9.515625 -12.6875 L 3.171875 -12.6875 L 3.171875 -7.921875 L 7.921875 -7.921875 L 7.921875 -6.34375 L 3.171875 -6.34375 L 3.171875 -1.578125 L 9.515625 -1.578125 L 9.515625 0 Z M 0 0 "/></g></g></g><g fill="#ffffff" fill-opacity="1"><g transform="translate(94.317488, 194.172907)"><g><path d="M 1.578125 0 L 1.578125 -1.578125 L 0 -1.578125 L 0 -3.171875 L 3.171875 -3.171875 L 3.171875 -1.578125 L 6.34375 -1.578125 L 6.34375 -6.34375 L 1.578125 -6.34375 L 1.578125 -7.921875 L 0 -7.921875 L 0 -12.6875 L 1.578125 -12.6875 L 1.578125 -14.265625 L 7.921875 -14.265625 L 7.921875 -12.6875 L 9.515625 -12.6875 L 9.515625 -11.09375 L 6.34375 -11.09375 L 6.34375 -12.6875 L 3.171875 -12.6875 L 3.171875 -7.921875 L 7.921875 -7.921875 L 7.921875 -6.34375 L 9.515625 -6.34375 L 9.515625 -1.578125 L 7.921875 -1.578125 L 7.921875 0 Z M 1.578125 0 "/></g></g></g><g fill="#ffffff" fill-opacity="1"><g transform="translate(106.681482, 194.172907)"><g><path d="M 0 0 L 0 -1.578125 L 1.578125 -1.578125 L 1.578125 -12.6875 L 0 -12.6875 L 0 -14.265625 L 6.34375 -14.265625 L 6.34375 -12.6875 L 4.75 -12.6875 L 4.75 -1.578125 L 6.34375 -1.578125 L 6.34375 0 Z M 0 0 "/></g></g></g><g fill="#ffffff" fill-opacity="1"><g transform="translate(115.87522, 194.172907)"><g><path d="M 1.578125 0 L 1.578125 -1.578125 L 0 -1.578125 L 0 -12.6875 L 1.578125 -12.6875 L 1.578125 -14.265625 L 7.921875 -14.265625 L 7.921875 -12.6875 L 9.515625 -12.6875 L 9.515625 -11.09375 L 6.34375 -11.09375 L 6.34375 -12.6875 L 3.171875 -12.6875 L 3.171875 -1.578125 L 6.34375 -1.578125 L 6.34375 -6.34375 L 4.75 -6.34375 L 4.75 -7.921875 L 9.515625 -7.921875 L 9.515625 0 Z M 1.578125 0 "/></g></g></g><g fill="#ffffff" fill-opacity="1"><g transform="translate(128.239214, 194.172907)"><g><path d="M 0 0 L 0 -14.265625 L 3.171875 -14.265625 L 3.171875 -12.6875 L 4.75 -12.6875 L 4.75 -7.921875 L 3.171875 -7.921875 L 3.171875 0 Z M 6.34375 0 L 6.34375 -3.171875 L 4.75 -3.171875 L 4.75 -7.921875 L 6.34375 -7.921875 L 6.34375 -14.265625 L 9.515625 -14.265625 L 9.515625 0 Z M 6.34375 0 "/></g></g></g><g fill="#ffffff" fill-opacity="1"><g transform="translate(140.603207, 194.172907)"><g><path d="M 0 0 L 0 -14.265625 L 9.515625 -14.265625 L 9.515625 -12.6875 L 3.171875 -12.6875 L 3.171875 -7.921875 L 7.921875 -7.921875 L 7.921875 -6.34375 L 3.171875 -6.34375 L 3.171875 -1.578125 L 9.515625 -1.578125 L 9.515625 0 Z M 0 0 "/></g></g></g><g fill="#ffffff" fill-opacity="1"><g transform="translate(152.9672, 194.172907)"><g><path d="M 6.34375 -1.578125 L 6.34375 -12.6875 L 3.171875 -12.6875 L 3.171875 -1.578125 Z M 0 0 L 0 -14.265625 L 7.921875 -14.265625 L 7.921875 -12.6875 L 9.515625 -12.6875 L 9.515625 -1.578125 L 7.921875 -1.578125 L 7.921875 0 Z M 0 0 "/></g></g></g><g fill="#ffffff" fill-opacity="1"><g transform="translate(165.331193, 194.172907)"><g/></g></g><g fill="#ffffff" fill-opacity="1"><g transform="translate(171.354677, 194.172907)"><g><path d="M 6.34375 -1.578125 L 6.34375 -7.921875 L 3.171875 -7.921875 L 3.171875 -1.578125 Z M 6.34375 -9.515625 L 6.34375 -12.6875 L 3.171875 -12.6875 L 3.171875 -9.515625 Z M 0 0 L 0 -14.265625 L 7.921875 -14.265625 L 7.921875 -12.6875 L 9.515625 -12.6875 L 9.515625 -9.515625 L 7.921875 -9.515625 L 7.921875 -7.921875 L 9.515625 -7.921875 L 9.515625 -1.578125 L 7.921875 -1.578125 L 7.921875 0 Z M 0 0 "/></g></g></g><g fill="#ffffff" fill-opacity="1"><g transform="translate(183.718671, 194.172907)"><g><path d="M 3.171875 0 L 3.171875 -7.921875 L 1.578125 -7.921875 L 1.578125 -9.515625 L 0 -9.515625 L 0 -14.265625 L 3.171875 -14.265625 L 3.171875 -9.515625 L 6.34375 -9.515625 L 6.34375 -14.265625 L 9.515625 -14.265625 L 9.515625 -9.515625 L 7.921875 -9.515625 L 7.921875 -7.921875 L 6.34375 -7.921875 L 6.34375 0 Z M 3.171875 0 "/></g></g></g><g clip-path="url(#cf84249b57)"><path fill="#663300" d="M -29.894531 -16.417969 L 2.9375 -16.417969 L 2.9375 0.00390625 L -29.894531 0.00390625 Z M -29.894531 -16.417969 " fill-opacity="1" fill-rule="evenodd"/></g><g clip-path="url(#760db15999)"><path fill="#663300" d="M -15.128906 0.00390625 L 17.703125 0.00390625 L 17.703125 16.417969 L -15.128906 16.417969 Z M -15.128906 0.00390625 " fill-opacity="1" fill-rule="evenodd"/></g><path fill="#f85041" d="M -13.46875 1.65625 L 16.042969 1.65625 L 16.042969 14.753906 L -13.46875 14.753906 Z M -13.46875 1.65625 " fill-opacity="1" fill-rule="evenodd"/><path fill="#e6bf5c" d="M -11.390625 2.585938 L 13.964844 2.585938 C 14.683594 2.585938 15.269531 3.175781 15.269531 3.882812 L 15.269531 5.347656 C 15.269531 6.0625 14.683594 6.652344 13.964844 6.652344 L -11.390625 6.652344 C -12.105469 6.652344 -12.6875 6.0625 -12.6875 5.347656 L -12.6875 3.882812 C -12.6875 3.175781 -12.105469 2.585938 -11.390625 2.585938 Z M -11.390625 2.585938 " fill-opacity="1" fill-rule="evenodd"/><g clip-path="url(#6bfeed6927)"><path fill="#663300" d="M 1.289062 -16.417969 L 34.125 -16.417969 L 34.125 0.00390625 L 1.289062 0.00390625 Z M 1.289062 -16.417969 " fill-opacity="1" fill-rule="evenodd"/></g><g clip-path="url(#83fc25d17e)"><path fill="#663300" d="M 15.582031 0.00390625 L 48.414062 0.00390625 L 48.414062 16.417969 L 15.582031 16.417969 Z M 15.582031 0.00390625 " fill-opacity="1" fill-rule="evenodd"/></g><path fill="#f85041" d="M 17.242188 1.65625 L 46.753906 1.65625 L 46.753906 14.753906 L 17.242188 14.753906 Z M 17.242188 1.65625 " fill-opacity="1" fill-rule="evenodd"/><path fill="#e6bf5c" d="M 19.320312 2.585938 L 44.675781 2.585938 C 45.390625 2.585938 45.980469 3.175781 45.980469 3.882812 L 45.980469 5.347656 C 45.980469 6.0625 45.394531 6.652344 44.675781 6.652344 L 19.320312 6.652344 C 18.605469 6.652344 18.023438 6.0625 18.023438 5.347656 L 18.023438 3.882812 C 18.023438 3.175781 18.605469 2.585938 19.320312 2.585938 Z M 19.320312 2.585938 " fill-opacity="1" fill-rule="evenodd"/><g clip-path="url(#c982f62361)"><path fill="#663300" d="M 32 -16.417969 L 64.835938 -16.417969 L 64.835938 0.00390625 L 32 0.00390625 Z M 32 -16.417969 " fill-opacity="1" fill-rule="evenodd"/></g><g clip-path="url(#1fefa55198)"><path fill="#663300" d="M 45.648438 0.00390625 L 78.484375 0.00390625 L 78.484375 16.417969 L 45.648438 16.417969 Z M 45.648438 0.00390625 " fill-opacity="1" fill-rule="evenodd"/></g><path fill="#f85041" d="M 47.308594 1.65625 L 76.824219 1.65625 L 76.824219 14.753906 L 47.308594 14.753906 Z M 47.308594 1.65625 " fill-opacity="1" fill-rule="evenodd"/><path fill="#e6bf5c" d="M 49.390625 2.585938 L 74.746094 2.585938 C 75.460938 2.585938 76.050781 3.175781 76.050781 3.882812 L 76.050781 5.347656 C 76.050781 6.0625 75.460938 6.652344 74.746094 6.652344 L 49.390625 6.652344 C 48.671875 6.652344 48.089844 6.0625 48.089844 5.347656 L 48.089844 3.882812 C 48.089844 3.175781 48.671875 2.585938 49.390625 2.585938 Z M 49.390625 2.585938 " fill-opacity="1" fill-rule="evenodd"/><g clip-path="url(#0c9536662a)"><path fill="#663300" d="M 62.070312 -16.417969 L 94.90625 -16.417969 L 94.90625 0.00390625 L 62.070312 0.00390625 Z M 62.070312 -16.417969 " fill-opacity="1" fill-rule="evenodd"/></g><g clip-path="url(#6c9a1b4fc9)"><path fill="#663300" d="M 76.359375 0.00390625 L 109.195312 0.00390625 L 109.195312 16.417969 L 76.359375 16.417969 Z M 76.359375 0.00390625 " fill-opacity="1" fill-rule="evenodd"/></g><path fill="#f85041" d="M 78.019531 1.65625 L 107.535156 1.65625 L 107.535156 14.753906 L 78.019531 14.753906 Z M 78.019531 1.65625 " fill-opacity="1" fill-rule="evenodd"/><path fill="#e6bf5c" d="M 80.101562 2.585938 L 105.453125 2.585938 C 106.171875 2.585938 106.761719 3.175781 106.761719 3.882812 L 106.761719 5.347656 C 106.761719 6.0625 106.171875 6.652344 105.453125 6.652344 L 80.101562 6.652344 C 79.382812 6.652344 78.800781 6.0625 78.800781 5.347656 L 78.800781 3.882812 C 78.800781 3.175781 79.382812 2.585938 80.101562 2.585938 Z M 80.101562 2.585938 " fill-opacity="1" fill-rule="evenodd"/><g clip-path="url(#88783d5ee6)"><path fill="#663300" d="M 92.78125 -16.417969 L 125.617188 -16.417969 L 125.617188 0.00390625 L 92.78125 0.00390625 Z M 92.78125 -16.417969 " fill-opacity="1" fill-rule="evenodd"/></g><g clip-path="url(#7245afc259)"><path fill="#663300" d="M 108.070312 0.00390625 L 140.90625 0.00390625 L 140.90625 16.417969 L 108.070312 16.417969 Z M 108.070312 0.00390625 " fill-opacity="1" fill-rule="evenodd"/></g><path fill="#f85041" d="M 109.730469 1.65625 L 139.246094 1.65625 L 139.246094 14.753906 L 109.730469 14.753906 Z M 109.730469 1.65625 " fill-opacity="1" fill-rule="evenodd"/><path fill="#e6bf5c" d="M 111.808594 2.585938 L 137.164062 2.585938 C 137.882812 2.585938 138.472656 3.175781 138.472656 3.882812 L 138.472656 5.347656 C 138.472656 6.0625 137.882812 6.652344 137.164062 6.652344 L 111.808594 6.652344 C 111.09375 6.652344 110.511719 6.0625 110.511719 5.347656 L 110.511719 3.882812 C 110.511719 3.175781 111.09375 2.585938 111.808594 2.585938 Z M 111.808594 2.585938 " fill-opacity="1" fill-rule="evenodd"/><g clip-path="url(#6fa4913a00)"><path fill="#663300" d="M 124.492188 -16.417969 L 157.324219 -16.417969 L 157.324219 0.00390625 L 124.492188 0.00390625 Z M 124.492188 -16.417969 " fill-opacity="1" fill-rule="evenodd"/></g><g clip-path="url(#ca016f1c40)"><path fill="#663300" d="M 139.070312 0.00390625 L 171.902344 0.00390625 L 171.902344 16.417969 L 139.070312 16.417969 Z M 139.070312 0.00390625 " fill-opacity="1" fill-rule="evenodd"/></g><path fill="#f85041" d="M 140.730469 1.65625 L 170.242188 1.65625 L 170.242188 14.753906 L 140.730469 14.753906 Z M 140.730469 1.65625 " fill-opacity="1" fill-rule="evenodd"/><path fill="#e6bf5c" d="M 142.808594 2.585938 L 168.164062 2.585938 C 168.878906 2.585938 169.46875 3.175781 169.46875 3.882812 L 169.46875 5.347656 C 169.46875 6.0625 168.878906 6.652344 168.164062 6.652344 L 142.808594 6.652344 C 142.09375 6.652344 141.511719 6.0625 141.511719 5.347656 L 141.511719 3.882812 C 141.511719 3.175781 142.089844 2.585938 142.808594 2.585938 Z M 142.808594 2.585938 " fill-opacity="1" fill-rule="evenodd"/><g clip-path="url(#5fc6767f61)"><path fill="#663300" d="M 155.488281 -16.417969 L 188.324219 -16.417969 L 188.324219 0.00390625 L 155.488281 0.00390625 Z M 155.488281 -16.417969 " fill-opacity="1" fill-rule="evenodd"/></g><g clip-path="url(#9c5f81f406)"><path fill="#663300" d="M 170.492188 0.00390625 L 203.324219 0.00390625 L 203.324219 16.417969 L 170.492188 16.417969 Z M 170.492188 0.00390625 " fill-opacity="1" fill-rule="evenodd"/></g><path fill="#f85041" d="M 172.152344 1.65625 L 201.664062 1.65625 L 201.664062 14.753906 L 172.152344 14.753906 Z M 172.152344 1.65625 " fill-opacity="1" fill-rule="evenodd"/><path fill="#e6bf5c" d="M 174.230469 2.585938 L 199.585938 2.585938 C 200.304688 2.585938 200.890625 3.175781 200.890625 3.882812 L 200.890625 5.347656 C 200.890625 6.0625 200.304688 6.652344 199.585938 6.652344 L 174.230469 6.652344 C 173.515625 6.652344 172.933594 6.0625 172.933594 5.347656 L 172.933594 3.882812 C 172.933594 3.175781 173.515625 2.585938 174.230469 2.585938 Z M 174.230469 2.585938 " fill-opacity="1" fill-rule="evenodd"/><g clip-path="url(#2875e83e0e)"><path fill="#663300" d="M 186.914062 -16.417969 L 219.746094 -16.417969 L 219.746094 0.00390625 L 186.914062 0.00390625 Z M 186.914062 -16.417969 " fill-opacity="1" fill-rule="evenodd"/></g><g clip-path="url(#08eecd26b0)"><path fill="#663300" d="M 201.488281 0.00390625 L 234.324219 0.00390625 L 234.324219 16.417969 L 201.488281 16.417969 Z M 201.488281 0.00390625 " fill-opacity="1" fill-rule="evenodd"/></g><path fill="#f85041" d="M 203.152344 1.65625 L 232.664062 1.65625 L 232.664062 14.753906 L 203.152344 14.753906 Z M 203.152344 1.65625 " fill-opacity="1" fill-rule="evenodd"/><path fill="#e6bf5c" d="M 205.230469 2.585938 L 230.585938 2.585938 C 231.300781 2.585938 231.890625 3.175781 231.890625 3.882812 L 231.890625 5.347656 C 231.890625 6.0625 231.300781 6.652344 230.585938 6.652344 L 205.230469 6.652344 C 204.511719 6.652344 203.929688 6.0625 203.929688 5.347656 L 203.929688 3.882812 C 203.929688 3.175781 204.511719 2.585938 205.230469 2.585938 Z M 205.230469 2.585938 " fill-opacity="1" fill-rule="evenodd"/><g clip-path="url(#572f7aa485)"><path fill="#663300" d="M 217.910156 -16.417969 L 250.746094 -16.417969 L 250.746094 0.00390625 L 217.910156 0.00390625 Z M 217.910156 -16.417969 " fill-opacity="1" fill-rule="evenodd"/></g><g clip-path="url(#1a5fe4fcf1)"><path fill="#663300" d="M 232.914062 0.00390625 L 265.746094 0.00390625 L 265.746094 16.417969 L 232.914062 16.417969 Z M 232.914062 0.00390625 " fill-opacity="1" fill-rule="evenodd"/></g><path fill="#f85041" d="M 234.574219 1.65625 L 264.085938 1.65625 L 264.085938 14.753906 L 234.574219 14.753906 Z M 234.574219 1.65625 " fill-opacity="1" fill-rule="evenodd"/><path fill="#e6bf5c" d="M 236.652344 2.585938 L 262.007812 2.585938 C 262.722656 2.585938 263.3125 3.175781 263.3125 3.882812 L 263.3125 5.347656 C 263.3125 6.0625 262.722656 6.652344 262.007812 6.652344 L 236.652344 6.652344 C 235.9375 6.652344 235.355469 6.0625 235.355469 5.347656 L 235.355469 3.882812 C 235.355469 3.175781 235.933594 2.585938 236.652344 2.585938 Z M 236.652344 2.585938 " fill-opacity="1" fill-rule="evenodd"/><path fill="#663300" d="M 249.332031 -16.417969 L 282.167969 -16.417969 L 282.167969 0.00390625 L 249.332031 0.00390625 Z M 249.332031 -16.417969 " fill-opacity="1" fill-rule="evenodd"/><g clip-path="url(#89b3e97ccb)"><path fill="#663300" d="M 263.910156 0.00390625 L 296.746094 0.00390625 L 296.746094 16.417969 L 263.910156 16.417969 Z M 263.910156 0.00390625 " fill-opacity="1" fill-rule="evenodd"/></g><path fill="#f85041" d="M 265.570312 1.65625 L 295.085938 1.65625 L 295.085938 14.753906 L 265.570312 14.753906 Z M 265.570312 1.65625 " fill-opacity="1" fill-rule="evenodd"/><path fill="#e6bf5c" d="M 267.652344 2.585938 L 293.007812 2.585938 C 293.722656 2.585938 294.3125 3.175781 294.3125 3.882812 L 294.3125 5.347656 C 294.3125 6.0625 293.722656 6.652344 293.007812 6.652344 L 267.652344 6.652344 C 266.933594 6.652344 266.351562 6.0625 266.351562 5.347656 L 266.351562 3.882812 C 266.351562 3.175781 266.933594 2.585938 267.652344 2.585938 Z M 267.652344 2.585938 " fill-opacity="1" fill-rule="evenodd"/><g clip-path="url(#f79919f7bc)"><path fill="#663300" d="M -19.722656 360.003906 L 13.113281 360.003906 L 13.113281 376.425781 L -19.722656 376.425781 Z M -19.722656 360.003906 " fill-opacity="1" fill-rule="evenodd"/></g><path fill="#f85041" d="M -18.066406 361.664062 L 11.453125 361.664062 L 11.453125 374.765625 L -18.066406 374.765625 Z M -18.066406 361.664062 " fill-opacity="1" fill-rule="evenodd"/><path fill="#e6bf5c" d="M -15.988281 362.589844 L 9.375 362.589844 C 10.089844 362.589844 10.671875 363.175781 10.671875 363.894531 L 10.671875 365.355469 C 10.671875 366.074219 10.089844 366.65625 9.375 366.65625 L -15.988281 366.65625 C -16.699219 366.65625 -17.289062 366.074219 -17.289062 365.355469 L -17.289062 363.894531 C -17.289062 363.175781 -16.699219 362.589844 -15.988281 362.589844 Z M -15.988281 362.589844 " fill-opacity="1" fill-rule="evenodd"/><g clip-path="url(#a9576f87bd)"><path fill="#663300" d="M 10.988281 360.003906 L 43.824219 360.003906 L 43.824219 376.425781 L 10.988281 376.425781 Z M 10.988281 360.003906 " fill-opacity="1" fill-rule="evenodd"/></g><path fill="#f85041" d="M 12.644531 361.664062 L 42.164062 361.664062 L 42.164062 374.765625 L 12.644531 374.765625 Z M 12.644531 361.664062 " fill-opacity="1" fill-rule="evenodd"/><path fill="#e6bf5c" d="M 14.722656 362.589844 L 40.085938 362.589844 C 40.800781 362.589844 41.382812 363.175781 41.382812 363.894531 L 41.382812 365.355469 C 41.382812 366.074219 40.800781 366.65625 40.085938 366.65625 L 14.722656 366.65625 C 14.011719 366.65625 13.421875 366.074219 13.421875 365.355469 L 13.421875 363.894531 C 13.421875 363.175781 14.011719 362.589844 14.722656 362.589844 Z M 14.722656 362.589844 " fill-opacity="1" fill-rule="evenodd"/><g clip-path="url(#fe934cdbbd)"><path fill="#663300" d="M 41.058594 360.003906 L 73.890625 360.003906 L 73.890625 376.425781 L 41.058594 376.425781 Z M 41.058594 360.003906 " fill-opacity="1" fill-rule="evenodd"/></g><path fill="#f85041" d="M 42.710938 361.664062 L 72.230469 361.664062 L 72.230469 374.765625 L 42.710938 374.765625 Z M 42.710938 361.664062 " fill-opacity="1" fill-rule="evenodd"/><path fill="#e6bf5c" d="M 44.789062 362.589844 L 70.152344 362.589844 C 70.871094 362.589844 71.453125 363.175781 71.453125 363.894531 L 71.453125 365.355469 C 71.453125 366.074219 70.871094 366.65625 70.152344 366.65625 L 44.789062 366.65625 C 44.082031 366.65625 43.492188 366.074219 43.492188 365.355469 L 43.492188 363.894531 C 43.492188 363.175781 44.082031 362.589844 44.789062 362.589844 Z M 44.789062 362.589844 " fill-opacity="1" fill-rule="evenodd"/><g clip-path="url(#321f78a029)"><path fill="#663300" d="M 71.769531 360.003906 L 104.601562 360.003906 L 104.601562 376.425781 L 71.769531 376.425781 Z M 71.769531 360.003906 " fill-opacity="1" fill-rule="evenodd"/></g><path fill="#f85041" d="M 73.421875 361.664062 L 102.941406 361.664062 L 102.941406 374.765625 L 73.421875 374.765625 Z M 73.421875 361.664062 " fill-opacity="1" fill-rule="evenodd"/><path fill="#e6bf5c" d="M 75.5 362.589844 L 100.863281 362.589844 C 101.578125 362.589844 102.160156 363.175781 102.160156 363.894531 L 102.160156 365.355469 C 102.160156 366.074219 101.582031 366.65625 100.863281 366.65625 L 75.5 366.65625 C 74.792969 366.65625 74.203125 366.074219 74.203125 365.355469 L 74.203125 363.894531 C 74.203125 363.175781 74.792969 362.589844 75.5 362.589844 Z M 75.5 362.589844 " fill-opacity="1" fill-rule="evenodd"/><g clip-path="url(#d0f0218c6f)"><path fill="#663300" d="M 103.480469 360.003906 L 136.3125 360.003906 L 136.3125 376.425781 L 103.480469 376.425781 Z M 103.480469 360.003906 " fill-opacity="1" fill-rule="evenodd"/></g><path fill="#f85041" d="M 105.132812 361.664062 L 134.652344 361.664062 L 134.652344 374.765625 L 105.132812 374.765625 Z M 105.132812 361.664062 " fill-opacity="1" fill-rule="evenodd"/><path fill="#e6bf5c" d="M 107.210938 362.589844 L 132.574219 362.589844 C 133.289062 362.589844 133.871094 363.175781 133.871094 363.894531 L 133.871094 365.355469 C 133.871094 366.074219 133.289062 366.65625 132.574219 366.65625 L 107.210938 366.65625 C 106.5 366.65625 105.914062 366.074219 105.914062 365.355469 L 105.914062 363.894531 C 105.914062 363.175781 106.5 362.589844 107.210938 362.589844 Z M 107.210938 362.589844 " fill-opacity="1" fill-rule="evenodd"/><g clip-path="url(#d19b85acf1)"><path fill="#663300" d="M 134.476562 360.003906 L 167.3125 360.003906 L 167.3125 376.425781 L 134.476562 376.425781 Z M 134.476562 360.003906 " fill-opacity="1" fill-rule="evenodd"/></g><path fill="#f85041" d="M 136.128906 361.664062 L 165.652344 361.664062 L 165.652344 374.765625 L 136.128906 374.765625 Z M 136.128906 361.664062 " fill-opacity="1" fill-rule="evenodd"/><path fill="#e6bf5c" d="M 138.210938 362.589844 L 163.570312 362.589844 C 164.289062 362.589844 164.871094 363.175781 164.871094 363.894531 L 164.871094 365.355469 C 164.871094 366.074219 164.289062 366.65625 163.570312 366.65625 L 138.210938 366.65625 C 137.5 366.65625 136.910156 366.074219 136.910156 365.355469 L 136.910156 363.894531 C 136.910156 363.175781 137.5 362.589844 138.210938 362.589844 Z M 138.210938 362.589844 " fill-opacity="1" fill-rule="evenodd"/><g clip-path="url(#e9cdbc953a)"><path fill="#663300" d="M 165.898438 360.003906 L 198.734375 360.003906 L 198.734375 376.425781 L 165.898438 376.425781 Z M 165.898438 360.003906 " fill-opacity="1" fill-rule="evenodd"/></g><path fill="#f85041" d="M 167.554688 361.664062 L 197.074219 361.664062 L 197.074219 374.765625 L 167.554688 374.765625 Z M 167.554688 361.664062 " fill-opacity="1" fill-rule="evenodd"/><path fill="#e6bf5c" d="M 169.632812 362.589844 L 194.996094 362.589844 C 195.710938 362.589844 196.292969 363.175781 196.292969 363.894531 L 196.292969 365.355469 C 196.292969 366.074219 195.710938 366.65625 194.996094 366.65625 L 169.632812 366.65625 C 168.921875 366.65625 168.332031 366.074219 168.332031 365.355469 L 168.332031 363.894531 C 168.335938 363.175781 168.921875 362.589844 169.632812 362.589844 Z M 169.632812 362.589844 " fill-opacity="1" fill-rule="evenodd"/><g clip-path="url(#a45607f35a)"><path fill="#663300" d="M 196.898438 360.003906 L 229.734375 360.003906 L 229.734375 376.425781 L 196.898438 376.425781 Z M 196.898438 360.003906 " fill-opacity="1" fill-rule="evenodd"/></g><path fill="#f85041" d="M 198.550781 361.664062 L 228.074219 361.664062 L 228.074219 374.765625 L 198.550781 374.765625 Z M 198.550781 361.664062 " fill-opacity="1" fill-rule="evenodd"/><path fill="#e6bf5c" d="M 200.632812 362.589844 L 225.992188 362.589844 C 226.710938 362.589844 227.292969 363.175781 227.292969 363.894531 L 227.292969 365.355469 C 227.292969 366.074219 226.710938 366.65625 225.992188 366.65625 L 200.632812 366.65625 C 199.921875 366.65625 199.332031 366.074219 199.332031 365.355469 L 199.332031 363.894531 C 199.332031 363.175781 199.921875 362.589844 200.632812 362.589844 Z M 200.632812 362.589844 " fill-opacity="1" fill-rule="evenodd"/><g clip-path="url(#e905cf351d)"><path fill="#663300" d="M 228.320312 360.003906 L 261.15625 360.003906 L 261.15625 376.425781 L 228.320312 376.425781 Z M 228.320312 360.003906 " fill-opacity="1" fill-rule="evenodd"/></g><path fill="#f85041" d="M 229.972656 361.664062 L 259.496094 361.664062 L 259.496094 374.765625 L 229.972656 374.765625 Z M 229.972656 361.664062 " fill-opacity="1" fill-rule="evenodd"/><path fill="#e6bf5c" d="M 232.054688 362.589844 L 257.414062 362.589844 C 258.132812 362.589844 258.714844 363.175781 258.714844 363.894531 L 258.714844 365.355469 C 258.714844 366.074219 258.132812 366.65625 257.414062 366.65625 L 232.054688 366.65625 C 231.34375 366.65625 230.753906 366.074219 230.753906 365.355469 L 230.753906 363.894531 C 230.753906 363.175781 231.34375 362.589844 232.054688 362.589844 Z M 232.054688 362.589844 " fill-opacity="1" fill-rule="evenodd"/><g clip-path="url(#681ce1b5e2)"><path fill="#663300" d="M 259.320312 360.003906 L 292.152344 360.003906 L 292.152344 376.425781 L 259.320312 376.425781 Z M 259.320312 360.003906 " fill-opacity="1" fill-rule="evenodd"/></g><path fill="#f85041" d="M 260.972656 361.664062 L 290.492188 361.664062 L 290.492188 374.765625 L 260.972656 374.765625 Z M 260.972656 361.664062 " fill-opacity="1" fill-rule="evenodd"/><path fill="#e6bf5c" d="M 263.050781 362.589844 L 288.414062 362.589844 C 289.132812 362.589844 289.714844 363.175781 289.714844 363.894531 L 289.714844 365.355469 C 289.714844 366.074219 289.132812 366.65625 288.414062 366.65625 L 263.050781 366.65625 C 262.34375 366.65625 261.753906 366.074219 261.753906 365.355469 L 261.753906 363.894531 C 261.753906 363.175781 262.34375 362.589844 263.050781 362.589844 Z M 263.050781 362.589844 " fill-opacity="1" fill-rule="evenodd"/></svg>