<svg xmlns="http://www.w3.org/2000/svg" xmlns:xlink="http://www.w3.org/1999/xlink" width="360" zoomAndPan="magnify" viewBox="0 0 270 112.499997" height="150" preserveAspectRatio="xMidYMid meet" version="1.0"><defs><g/><clipPath id="532dcbbe28"><path d="M 4.382812 24.082031 L 259.554688 24.082031 L 259.554688 81.230469 L 4.382812 81.230469 Z M 4.382812 24.082031 " clip-rule="nonzero"/></clipPath><clipPath id="82706c371b"><path d="M 230.816406 24.082031 C 246.601562 24.082031 259.394531 36.875 259.394531 52.65625 C 259.394531 68.4375 246.601562 81.230469 230.816406 81.230469 L 32.957031 81.230469 C 17.175781 81.230469 4.382812 68.4375 4.382812 52.65625 C 4.382812 36.875 17.175781 24.082031 32.957031 24.082031 Z M 230.816406 24.082031 " clip-rule="nonzero"/></clipPath></defs><g clip-path="url(#532dcbbe28)"><g clip-path="url(#82706c371b)"><path fill="#f85041" d="M 4.382812 24.082031 L 259.332031 24.082031 L 259.332031 81.230469 L 4.382812 81.230469 Z M 4.382812 24.082031 " fill-opacity="1" fill-rule="nonzero"/></g></g><g fill="#f2c12e" fill-opacity="1"><g transform="translate(27.841631, 71.325101)"><g><path d="M 2.46875 -0.671875 C 2.46875 -0.25 2.71875 0 3.140625 0 L 11.328125 0 C 11.75 0 12 -0.25 12 -0.671875 L 12 -19.65625 C 12 -20.078125 12.25 -20.328125 12.671875 -20.328125 L 13.484375 -20.328125 C 13.90625 -20.328125 14.140625 -20.078125 14.140625 -19.65625 L 14.140625 -18.875 C 14.140625 -18.453125 14.390625 -18.203125 14.8125 -18.203125 L 15.59375 -18.203125 C 16.015625 -18.203125 16.265625 -17.953125 16.265625 -17.53125 L 16.265625 -0.671875 C 16.265625 -0.25 16.515625 0 16.9375 0 L 25.125 0 C 25.546875 0 25.796875 -0.25 25.796875 -0.671875 L 25.796875 -32.359375 C 25.796875 -32.78125 25.546875 -33.015625 25.125 -33.015625 L 16.9375 -33.015625 C 16.515625 -33.015625 16.265625 -32.78125 16.265625 -32.359375 L 16.265625 -23.109375 C 16.265625 -22.71875 16.546875 -22.4375 16.9375 -22.4375 L 17.71875 -22.4375 C 18.09375 -22.4375 18.375 -22.15625 18.375 -21.765625 L 18.375 -21 C 18.375 -20.609375 18.65625 -20.328125 19.046875 -20.328125 L 19.828125 -20.328125 C 20.21875 -20.328125 20.5 -20.046875 20.5 -19.65625 L 20.5 -18.875 C 20.5 -18.484375 20.21875 -18.203125 19.828125 -18.203125 L 19.046875 -18.203125 C 18.65625 -18.203125 18.375 -18.484375 18.375 -18.875 L 18.375 -19.65625 C 18.375 -20.046875 18.09375 -20.328125 17.71875 -20.328125 L 16.9375 -20.328125 C 16.546875 -20.328125 16.265625 -20.609375 16.265625 -21 L 16.265625 -21.765625 C 16.265625 -22.1875 16.015625 -22.4375 15.59375 -22.4375 L 14.8125 -22.4375 C 14.390625 -22.4375 14.140625 -22.6875 14.140625 -23.109375 L 14.140625 -23.890625 C 14.140625 -24.3125 13.90625 -24.5625 13.484375 -24.5625 L 12.703125 -24.5625 C 12.28125 -24.5625 12.03125 -24.796875 12.03125 -25.21875 L 12.03125 -26 C 12.03125 -26.421875 11.78125 -26.671875 11.359375 -26.671875 L 10.578125 -26.671875 C 10.203125 -26.671875 9.90625 -26.953125 9.90625 -27.34375 L 9.90625 -28.125 C 9.90625 -28.5 9.625 -28.796875 9.25 -28.796875 L 8.46875 -28.796875 C 8.078125 -28.796875 7.796875 -29.078125 7.796875 -29.453125 L 7.796875 -30.234375 C 7.796875 -30.625 7.515625 -30.90625 7.125 -30.90625 L 6.34375 -30.90625 C 5.96875 -30.90625 5.6875 -31.1875 5.6875 -31.578125 L 5.6875 -32.359375 C 5.6875 -32.734375 5.390625 -33.015625 5.015625 -33.015625 L 3.140625 -33.015625 C 2.71875 -33.015625 2.46875 -32.78125 2.46875 -32.359375 Z M 2.46875 -0.671875 "/></g></g></g><g fill="#f2c12e" fill-opacity="1"><g transform="translate(56.095433, 71.325101)"><g><path d="M 2.46875 -0.671875 C 2.46875 -0.28125 2.75 0 3.140625 0 L 11.328125 0 C 11.71875 0 12 -0.28125 12 -0.671875 L 12 -32.359375 C 12 -32.734375 11.71875 -33.015625 11.328125 -33.015625 L 3.140625 -33.015625 C 2.75 -33.015625 2.46875 -32.734375 2.46875 -32.359375 Z M 2.46875 -0.671875 "/></g></g></g><g fill="#f2c12e" fill-opacity="1"><g transform="translate(70.55743, 71.325101)"><g><path d="M 2.46875 -0.671875 C 2.46875 -0.25 2.71875 0 3.140625 0 L 11.328125 0 C 11.75 0 12 -0.25 12 -0.671875 L 12 -19.65625 C 12 -20.078125 12.25 -20.328125 12.671875 -20.328125 L 13.484375 -20.328125 C 13.90625 -20.328125 14.140625 -20.078125 14.140625 -19.65625 L 14.140625 -18.875 C 14.140625 -18.453125 14.390625 -18.203125 14.8125 -18.203125 L 15.59375 -18.203125 C 16.015625 -18.203125 16.265625 -17.953125 16.265625 -17.53125 L 16.265625 -0.671875 C 16.265625 -0.25 16.515625 0 16.9375 0 L 25.125 0 C 25.546875 0 25.796875 -0.25 25.796875 -0.671875 L 25.796875 -32.359375 C 25.796875 -32.78125 25.546875 -33.015625 25.125 -33.015625 L 16.9375 -33.015625 C 16.515625 -33.015625 16.265625 -32.78125 16.265625 -32.359375 L 16.265625 -23.109375 C 16.265625 -22.71875 16.546875 -22.4375 16.9375 -22.4375 L 17.71875 -22.4375 C 18.09375 -22.4375 18.375 -22.15625 18.375 -21.765625 L 18.375 -21 C 18.375 -20.609375 18.65625 -20.328125 19.046875 -20.328125 L 19.828125 -20.328125 C 20.21875 -20.328125 20.5 -20.046875 20.5 -19.65625 L 20.5 -18.875 C 20.5 -18.484375 20.21875 -18.203125 19.828125 -18.203125 L 19.046875 -18.203125 C 18.65625 -18.203125 18.375 -18.484375 18.375 -18.875 L 18.375 -19.65625 C 18.375 -20.046875 18.09375 -20.328125 17.71875 -20.328125 L 16.9375 -20.328125 C 16.546875 -20.328125 16.265625 -20.609375 16.265625 -21 L 16.265625 -21.765625 C 16.265625 -22.1875 16.015625 -22.4375 15.59375 -22.4375 L 14.8125 -22.4375 C 14.390625 -22.4375 14.140625 -22.6875 14.140625 -23.109375 L 14.140625 -23.890625 C 14.140625 -24.3125 13.90625 -24.5625 13.484375 -24.5625 L 12.703125 -24.5625 C 12.28125 -24.5625 12.03125 -24.796875 12.03125 -25.21875 L 12.03125 -26 C 12.03125 -26.421875 11.78125 -26.671875 11.359375 -26.671875 L 10.578125 -26.671875 C 10.203125 -26.671875 9.90625 -26.953125 9.90625 -27.34375 L 9.90625 -28.125 C 9.90625 -28.5 9.625 -28.796875 9.25 -28.796875 L 8.46875 -28.796875 C 8.078125 -28.796875 7.796875 -29.078125 7.796875 -29.453125 L 7.796875 -30.234375 C 7.796875 -30.625 7.515625 -30.90625 7.125 -30.90625 L 6.34375 -30.90625 C 5.96875 -30.90625 5.6875 -31.1875 5.6875 -31.578125 L 5.6875 -32.359375 C 5.6875 -32.734375 5.390625 -33.015625 5.015625 -33.015625 L 3.140625 -33.015625 C 2.71875 -33.015625 2.46875 -32.78125 2.46875 -32.359375 Z M 2.46875 -0.671875 "/></g></g></g><g fill="#f2c12e" fill-opacity="1"><g transform="translate(98.811233, 71.325101)"><g><path d="M 3.171875 -0.671875 C 3.171875 -0.28125 3.453125 0 3.84375 0 L 19.4375 0 C 19.828125 0 20.109375 -0.28125 20.109375 -0.671875 L 20.109375 -1.453125 C 20.109375 -1.828125 20.390625 -2.109375 20.78125 -2.109375 L 21.5625 -2.109375 C 21.9375 -2.109375 22.234375 -2.40625 22.234375 -2.78125 L 22.234375 -32.359375 C 22.234375 -32.734375 21.9375 -33.015625 21.5625 -33.015625 L 13.375 -33.015625 C 12.953125 -33.015625 12.703125 -32.78125 12.703125 -32.359375 L 12.703125 -2.78125 C 12.703125 -2.359375 12.453125 -2.109375 12.03125 -2.109375 L 11.25 -2.109375 C 10.828125 -2.109375 10.578125 -2.359375 10.578125 -2.78125 L 10.578125 -3.5625 C 10.578125 -3.984375 10.34375 -4.234375 9.90625 -4.234375 L 9.109375 -4.234375 C 8.671875 -4.234375 8.4375 -4.484375 8.4375 -4.90625 L 8.4375 -8.859375 C 8.4375 -9.28125 8.1875 -9.53125 7.765625 -9.53125 L 1.734375 -9.53125 C 1.34375 -9.53125 1.0625 -9.25 1.0625 -8.859375 L 1.0625 -2.78125 C 1.0625 -2.40625 1.34375 -2.109375 1.734375 -2.109375 L 2.5 -2.109375 C 2.890625 -2.109375 3.171875 -1.828125 3.171875 -1.453125 Z M 3.171875 -0.671875 "/></g></g></g><g fill="#f2c12e" fill-opacity="1"><g transform="translate(123.502448, 71.325101)"><g><path d="M 2.46875 -0.671875 C 2.46875 -0.28125 2.75 0 3.140625 0 L 11.328125 0 C 11.71875 0 12 -0.28125 12 -0.671875 L 12 -9.765625 C 12 -10.15625 12.28125 -10.4375 12.671875 -10.4375 L 13.4375 -10.4375 C 13.828125 -10.4375 14.109375 -10.71875 14.109375 -11.109375 L 14.109375 -11.890625 C 14.109375 -12.28125 14.390625 -12.5625 14.78125 -12.5625 L 15.5625 -12.5625 C 15.953125 -12.5625 16.234375 -12.28125 16.234375 -11.890625 L 16.234375 -0.671875 C 16.234375 -0.28125 16.515625 0 16.90625 0 L 25.078125 0 C 25.46875 0 25.75 -0.28125 25.75 -0.671875 L 25.75 -30.234375 C 25.75 -30.625 25.46875 -30.90625 25.078125 -30.90625 L 24.3125 -30.90625 C 23.921875 -30.90625 23.640625 -31.1875 23.640625 -31.578125 L 23.640625 -32.359375 C 23.640625 -32.734375 23.359375 -33.015625 22.96875 -33.015625 L 11.578125 -33.015625 C 11.1875 -33.015625 10.90625 -32.734375 10.90625 -32.359375 L 10.90625 -31.578125 C 10.90625 -31.1875 10.625 -30.90625 10.234375 -30.90625 L 9.875 -30.90625 C 9.484375 -30.90625 9.203125 -30.625 9.203125 -30.234375 L 9.203125 -29.453125 C 9.203125 -29.078125 8.921875 -28.796875 8.53125 -28.796875 L 7.765625 -28.796875 C 7.375 -28.796875 7.09375 -28.5 7.09375 -28.125 L 7.09375 -27.34375 C 7.09375 -26.953125 6.8125 -26.671875 6.421875 -26.671875 L 5.640625 -26.671875 C 5.25 -26.671875 4.96875 -26.390625 4.96875 -26 L 4.96875 -25.21875 C 4.96875 -24.84375 4.6875 -24.5625 4.296875 -24.5625 L 3.140625 -24.5625 C 2.75 -24.5625 2.46875 -24.28125 2.46875 -23.890625 Z M 12.671875 -14.46875 C 12.28125 -14.46875 12 -14.75 12 -15.140625 L 12 -28.125 C 12 -28.5 12.28125 -28.796875 12.671875 -28.796875 L 13.4375 -28.796875 C 13.828125 -28.796875 14.109375 -29.078125 14.109375 -29.453125 L 14.109375 -30.234375 C 14.109375 -30.625 14.390625 -30.90625 14.78125 -30.90625 L 15.5625 -30.90625 C 15.953125 -30.90625 16.234375 -30.625 16.234375 -30.234375 L 16.234375 -17.25 C 16.234375 -16.859375 15.953125 -16.578125 15.5625 -16.578125 L 14.78125 -16.578125 C 14.390625 -16.578125 14.109375 -16.296875 14.109375 -15.90625 L 14.109375 -15.140625 C 14.109375 -14.75 13.828125 -14.46875 13.4375 -14.46875 Z M 12.671875 -14.46875 "/></g></g></g><g fill="#f2c12e" fill-opacity="1"><g transform="translate(151.720986, 71.325101)"><g/></g></g><g fill="#f2c12e" fill-opacity="1"><g transform="translate(160.539274, 71.325101)"><g><path d="M 6.703125 -0.671875 C 6.703125 -0.28125 6.984375 0 7.375 0 L 22.9375 0 C 23.359375 0 23.640625 -0.28125 23.640625 -0.703125 L 23.640625 -1.40625 C 23.640625 -1.828125 23.921875 -2.109375 24.34375 -2.109375 L 25.046875 -2.109375 C 25.46875 -2.109375 25.75 -2.40625 25.75 -2.828125 L 25.75 -8.8125 C 25.75 -9.25 25.46875 -9.53125 25.046875 -9.53125 L 16.9375 -9.53125 C 16.515625 -9.53125 16.234375 -9.25 16.234375 -8.8125 L 16.234375 -2.78125 C 16.234375 -2.40625 15.953125 -2.109375 15.5625 -2.109375 L 14.78125 -2.109375 C 14.390625 -2.109375 14.109375 -2.40625 14.109375 -2.78125 L 14.109375 -3.5625 C 14.109375 -3.953125 13.828125 -4.234375 13.4375 -4.234375 L 12.671875 -4.234375 C 12.28125 -4.234375 12 -4.515625 12 -4.90625 L 12 -28.125 C 12 -28.5 12.28125 -28.796875 12.671875 -28.796875 L 13.4375 -28.796875 C 13.828125 -28.796875 14.109375 -29.078125 14.109375 -29.453125 L 14.109375 -30.234375 C 14.109375 -30.625 14.390625 -30.90625 14.78125 -30.90625 L 15.5625 -30.90625 C 15.953125 -30.90625 16.234375 -30.625 16.234375 -30.234375 L 16.234375 -26.3125 C 16.234375 -25.890625 16.515625 -25.609375 16.9375 -25.609375 L 17.671875 -25.609375 C 18.0625 -25.609375 18.34375 -25.328125 18.34375 -24.9375 L 18.34375 -24.203125 C 18.34375 -23.78125 18.625 -23.5 19.046875 -23.5 L 25.046875 -23.5 C 25.46875 -23.5 25.75 -23.78125 25.75 -24.203125 L 25.75 -30.203125 C 25.75 -30.625 25.46875 -30.90625 25.046875 -30.90625 L 23.8125 -30.90625 C 23.390625 -30.90625 23.109375 -31.1875 23.109375 -31.609375 L 23.109375 -32.3125 C 23.109375 -32.734375 22.828125 -33.015625 22.40625 -33.015625 L 7.375 -33.015625 C 6.984375 -33.015625 6.703125 -32.734375 6.703125 -32.359375 L 6.703125 -31.578125 C 6.703125 -31.1875 6.421875 -30.90625 6.03125 -30.90625 L 5.25 -30.90625 C 4.875 -30.90625 4.59375 -30.625 4.59375 -30.234375 L 4.59375 -29.453125 C 4.59375 -29.078125 4.296875 -28.796875 3.921875 -28.796875 L 3.140625 -28.796875 C 2.75 -28.796875 2.46875 -28.5 2.46875 -28.125 L 2.46875 -4.90625 C 2.46875 -4.515625 2.75 -4.234375 3.140625 -4.234375 L 3.921875 -4.234375 C 4.296875 -4.234375 4.59375 -3.953125 4.59375 -3.5625 L 4.59375 -2.78125 C 4.59375 -2.40625 4.875 -2.109375 5.25 -2.109375 L 6.03125 -2.109375 C 6.421875 -2.109375 6.703125 -1.828125 6.703125 -1.453125 Z M 6.703125 -0.671875 "/></g></g></g><g fill="#f2c12e" fill-opacity="1"><g transform="translate(188.405069, 71.325101)"><g><path d="M 2.46875 -0.671875 C 2.46875 -0.28125 2.75 0 3.140625 0 L 11.328125 0 C 11.71875 0 12 -0.28125 12 -0.671875 L 12 -9.765625 C 12 -10.15625 12.28125 -10.4375 12.671875 -10.4375 L 13.4375 -10.4375 C 13.828125 -10.4375 14.109375 -10.71875 14.109375 -11.109375 L 14.109375 -11.890625 C 14.109375 -12.28125 14.390625 -12.5625 14.78125 -12.5625 L 15.5625 -12.5625 C 15.953125 -12.5625 16.234375 -12.28125 16.234375 -11.890625 L 16.234375 -0.671875 C 16.234375 -0.28125 16.515625 0 16.90625 0 L 25.078125 0 C 25.46875 0 25.75 -0.28125 25.75 -0.671875 L 25.75 -30.234375 C 25.75 -30.625 25.46875 -30.90625 25.078125 -30.90625 L 24.3125 -30.90625 C 23.921875 -30.90625 23.640625 -31.1875 23.640625 -31.578125 L 23.640625 -32.359375 C 23.640625 -32.734375 23.359375 -33.015625 22.96875 -33.015625 L 11.578125 -33.015625 C 11.1875 -33.015625 10.90625 -32.734375 10.90625 -32.359375 L 10.90625 -31.578125 C 10.90625 -31.1875 10.625 -30.90625 10.234375 -30.90625 L 9.875 -30.90625 C 9.484375 -30.90625 9.203125 -30.625 9.203125 -30.234375 L 9.203125 -29.453125 C 9.203125 -29.078125 8.921875 -28.796875 8.53125 -28.796875 L 7.765625 -28.796875 C 7.375 -28.796875 7.09375 -28.5 7.09375 -28.125 L 7.09375 -27.34375 C 7.09375 -26.953125 6.8125 -26.671875 6.421875 -26.671875 L 5.640625 -26.671875 C 5.25 -26.671875 4.96875 -26.390625 4.96875 -26 L 4.96875 -25.21875 C 4.96875 -24.84375 4.6875 -24.5625 4.296875 -24.5625 L 3.140625 -24.5625 C 2.75 -24.5625 2.46875 -24.28125 2.46875 -23.890625 Z M 12.671875 -14.46875 C 12.28125 -14.46875 12 -14.75 12 -15.140625 L 12 -28.125 C 12 -28.5 12.28125 -28.796875 12.671875 -28.796875 L 13.4375 -28.796875 C 13.828125 -28.796875 14.109375 -29.078125 14.109375 -29.453125 L 14.109375 -30.234375 C 14.109375 -30.625 14.390625 -30.90625 14.78125 -30.90625 L 15.5625 -30.90625 C 15.953125 -30.90625 16.234375 -30.625 16.234375 -30.234375 L 16.234375 -17.25 C 16.234375 -16.859375 15.953125 -16.578125 15.5625 -16.578125 L 14.78125 -16.578125 C 14.390625 -16.578125 14.109375 -16.296875 14.109375 -15.90625 L 14.109375 -15.140625 C 14.109375 -14.75 13.828125 -14.46875 13.4375 -14.46875 Z M 12.671875 -14.46875 "/></g></g></g><g fill="#f2c12e" fill-opacity="1"><g transform="translate(216.623607, 71.325101)"><g><path d="M 9.5625 -0.671875 C 9.5625 -0.28125 9.84375 0 10.234375 0 L 18.421875 0 C 18.8125 0 19.09375 -0.28125 19.09375 -0.671875 L 19.09375 -30.265625 C 19.09375 -30.65625 19.375 -30.9375 19.75 -30.9375 L 20.5625 -30.9375 C 20.953125 -30.9375 21.234375 -30.65625 21.234375 -30.265625 L 21.234375 -26.28125 C 21.234375 -25.890625 21.515625 -25.609375 21.90625 -25.609375 L 22.6875 -25.609375 C 23.078125 -25.609375 23.359375 -25.328125 23.359375 -24.9375 L 23.359375 -24.171875 C 23.359375 -23.78125 23.640625 -23.5 24.03125 -23.5 L 26.921875 -23.5 C 27.3125 -23.5 27.59375 -23.78125 27.59375 -24.171875 L 27.59375 -32.359375 C 27.59375 -32.734375 27.3125 -33.015625 26.921875 -33.015625 L 1.734375 -33.015625 C 1.34375 -33.015625 1.0625 -32.734375 1.0625 -32.359375 L 1.0625 -24.171875 C 1.0625 -23.78125 1.34375 -23.5 1.734375 -23.5 L 4.625 -23.5 C 5.015625 -23.5 5.296875 -23.78125 5.296875 -24.171875 L 5.296875 -24.9375 C 5.296875 -25.328125 5.578125 -25.609375 5.96875 -25.609375 L 6.734375 -25.609375 C 7.125 -25.609375 7.40625 -25.890625 7.40625 -26.28125 L 7.40625 -30.265625 C 7.40625 -30.65625 7.6875 -30.9375 8.078125 -30.9375 L 8.890625 -30.9375 C 9.28125 -30.9375 9.5625 -30.65625 9.5625 -30.265625 Z M 9.5625 -0.671875 "/></g></g></g><g fill="#5ce1e6" fill-opacity="1"><g transform="translate(26.282521, 69.765992)"><g><path d="M 2.46875 -0.671875 C 2.46875 -0.25 2.71875 0 3.140625 0 L 11.328125 0 C 11.75 0 12 -0.25 12 -0.671875 L 12 -19.65625 C 12 -20.078125 12.25 -20.328125 12.671875 -20.328125 L 13.484375 -20.328125 C 13.90625 -20.328125 14.140625 -20.078125 14.140625 -19.65625 L 14.140625 -18.875 C 14.140625 -18.453125 14.390625 -18.203125 14.8125 -18.203125 L 15.59375 -18.203125 C 16.015625 -18.203125 16.265625 -17.953125 16.265625 -17.53125 L 16.265625 -0.671875 C 16.265625 -0.25 16.515625 0 16.9375 0 L 25.125 0 C 25.546875 0 25.796875 -0.25 25.796875 -0.671875 L 25.796875 -32.359375 C 25.796875 -32.78125 25.546875 -33.015625 25.125 -33.015625 L 16.9375 -33.015625 C 16.515625 -33.015625 16.265625 -32.78125 16.265625 -32.359375 L 16.265625 -23.109375 C 16.265625 -22.71875 16.546875 -22.4375 16.9375 -22.4375 L 17.71875 -22.4375 C 18.09375 -22.4375 18.375 -22.15625 18.375 -21.765625 L 18.375 -21 C 18.375 -20.609375 18.65625 -20.328125 19.046875 -20.328125 L 19.828125 -20.328125 C 20.21875 -20.328125 20.5 -20.046875 20.5 -19.65625 L 20.5 -18.875 C 20.5 -18.484375 20.21875 -18.203125 19.828125 -18.203125 L 19.046875 -18.203125 C 18.65625 -18.203125 18.375 -18.484375 18.375 -18.875 L 18.375 -19.65625 C 18.375 -20.046875 18.09375 -20.328125 17.71875 -20.328125 L 16.9375 -20.328125 C 16.546875 -20.328125 16.265625 -20.609375 16.265625 -21 L 16.265625 -21.765625 C 16.265625 -22.1875 16.015625 -22.4375 15.59375 -22.4375 L 14.8125 -22.4375 C 14.390625 -22.4375 14.140625 -22.6875 14.140625 -23.109375 L 14.140625 -23.890625 C 14.140625 -24.3125 13.90625 -24.5625 13.484375 -24.5625 L 12.703125 -24.5625 C 12.28125 -24.5625 12.03125 -24.796875 12.03125 -25.21875 L 12.03125 -26 C 12.03125 -26.421875 11.78125 -26.671875 11.359375 -26.671875 L 10.578125 -26.671875 C 10.203125 -26.671875 9.90625 -26.953125 9.90625 -27.34375 L 9.90625 -28.125 C 9.90625 -28.5 9.625 -28.796875 9.25 -28.796875 L 8.46875 -28.796875 C 8.078125 -28.796875 7.796875 -29.078125 7.796875 -29.453125 L 7.796875 -30.234375 C 7.796875 -30.625 7.515625 -30.90625 7.125 -30.90625 L 6.34375 -30.90625 C 5.96875 -30.90625 5.6875 -31.1875 5.6875 -31.578125 L 5.6875 -32.359375 C 5.6875 -32.734375 5.390625 -33.015625 5.015625 -33.015625 L 3.140625 -33.015625 C 2.71875 -33.015625 2.46875 -32.78125 2.46875 -32.359375 Z M 2.46875 -0.671875 "/></g></g></g><g fill="#5ce1e6" fill-opacity="1"><g transform="translate(54.536324, 69.765992)"><g><path d="M 2.46875 -0.671875 C 2.46875 -0.28125 2.75 0 3.140625 0 L 11.328125 0 C 11.71875 0 12 -0.28125 12 -0.671875 L 12 -32.359375 C 12 -32.734375 11.71875 -33.015625 11.328125 -33.015625 L 3.140625 -33.015625 C 2.75 -33.015625 2.46875 -32.734375 2.46875 -32.359375 Z M 2.46875 -0.671875 "/></g></g></g><g fill="#5ce1e6" fill-opacity="1"><g transform="translate(68.99832, 69.765992)"><g><path d="M 2.46875 -0.671875 C 2.46875 -0.25 2.71875 0 3.140625 0 L 11.328125 0 C 11.75 0 12 -0.25 12 -0.671875 L 12 -19.65625 C 12 -20.078125 12.25 -20.328125 12.671875 -20.328125 L 13.484375 -20.328125 C 13.90625 -20.328125 14.140625 -20.078125 14.140625 -19.65625 L 14.140625 -18.875 C 14.140625 -18.453125 14.390625 -18.203125 14.8125 -18.203125 L 15.59375 -18.203125 C 16.015625 -18.203125 16.265625 -17.953125 16.265625 -17.53125 L 16.265625 -0.671875 C 16.265625 -0.25 16.515625 0 16.9375 0 L 25.125 0 C 25.546875 0 25.796875 -0.25 25.796875 -0.671875 L 25.796875 -32.359375 C 25.796875 -32.78125 25.546875 -33.015625 25.125 -33.015625 L 16.9375 -33.015625 C 16.515625 -33.015625 16.265625 -32.78125 16.265625 -32.359375 L 16.265625 -23.109375 C 16.265625 -22.71875 16.546875 -22.4375 16.9375 -22.4375 L 17.71875 -22.4375 C 18.09375 -22.4375 18.375 -22.15625 18.375 -21.765625 L 18.375 -21 C 18.375 -20.609375 18.65625 -20.328125 19.046875 -20.328125 L 19.828125 -20.328125 C 20.21875 -20.328125 20.5 -20.046875 20.5 -19.65625 L 20.5 -18.875 C 20.5 -18.484375 20.21875 -18.203125 19.828125 -18.203125 L 19.046875 -18.203125 C 18.65625 -18.203125 18.375 -18.484375 18.375 -18.875 L 18.375 -19.65625 C 18.375 -20.046875 18.09375 -20.328125 17.71875 -20.328125 L 16.9375 -20.328125 C 16.546875 -20.328125 16.265625 -20.609375 16.265625 -21 L 16.265625 -21.765625 C 16.265625 -22.1875 16.015625 -22.4375 15.59375 -22.4375 L 14.8125 -22.4375 C 14.390625 -22.4375 14.140625 -22.6875 14.140625 -23.109375 L 14.140625 -23.890625 C 14.140625 -24.3125 13.90625 -24.5625 13.484375 -24.5625 L 12.703125 -24.5625 C 12.28125 -24.5625 12.03125 -24.796875 12.03125 -25.21875 L 12.03125 -26 C 12.03125 -26.421875 11.78125 -26.671875 11.359375 -26.671875 L 10.578125 -26.671875 C 10.203125 -26.671875 9.90625 -26.953125 9.90625 -27.34375 L 9.90625 -28.125 C 9.90625 -28.5 9.625 -28.796875 9.25 -28.796875 L 8.46875 -28.796875 C 8.078125 -28.796875 7.796875 -29.078125 7.796875 -29.453125 L 7.796875 -30.234375 C 7.796875 -30.625 7.515625 -30.90625 7.125 -30.90625 L 6.34375 -30.90625 C 5.96875 -30.90625 5.6875 -31.1875 5.6875 -31.578125 L 5.6875 -32.359375 C 5.6875 -32.734375 5.390625 -33.015625 5.015625 -33.015625 L 3.140625 -33.015625 C 2.71875 -33.015625 2.46875 -32.78125 2.46875 -32.359375 Z M 2.46875 -0.671875 "/></g></g></g><g fill="#5ce1e6" fill-opacity="1"><g transform="translate(97.252123, 69.765992)"><g><path d="M 3.171875 -0.671875 C 3.171875 -0.28125 3.453125 0 3.84375 0 L 19.4375 0 C 19.828125 0 20.109375 -0.28125 20.109375 -0.671875 L 20.109375 -1.453125 C 20.109375 -1.828125 20.390625 -2.109375 20.78125 -2.109375 L 21.5625 -2.109375 C 21.9375 -2.109375 22.234375 -2.40625 22.234375 -2.78125 L 22.234375 -32.359375 C 22.234375 -32.734375 21.9375 -33.015625 21.5625 -33.015625 L 13.375 -33.015625 C 12.953125 -33.015625 12.703125 -32.78125 12.703125 -32.359375 L 12.703125 -2.78125 C 12.703125 -2.359375 12.453125 -2.109375 12.03125 -2.109375 L 11.25 -2.109375 C 10.828125 -2.109375 10.578125 -2.359375 10.578125 -2.78125 L 10.578125 -3.5625 C 10.578125 -3.984375 10.34375 -4.234375 9.90625 -4.234375 L 9.109375 -4.234375 C 8.671875 -4.234375 8.4375 -4.484375 8.4375 -4.90625 L 8.4375 -8.859375 C 8.4375 -9.28125 8.1875 -9.53125 7.765625 -9.53125 L 1.734375 -9.53125 C 1.34375 -9.53125 1.0625 -9.25 1.0625 -8.859375 L 1.0625 -2.78125 C 1.0625 -2.40625 1.34375 -2.109375 1.734375 -2.109375 L 2.5 -2.109375 C 2.890625 -2.109375 3.171875 -1.828125 3.171875 -1.453125 Z M 3.171875 -0.671875 "/></g></g></g><g fill="#5ce1e6" fill-opacity="1"><g transform="translate(121.943338, 69.765992)"><g><path d="M 2.46875 -0.671875 C 2.46875 -0.28125 2.75 0 3.140625 0 L 11.328125 0 C 11.71875 0 12 -0.28125 12 -0.671875 L 12 -9.765625 C 12 -10.15625 12.28125 -10.4375 12.671875 -10.4375 L 13.4375 -10.4375 C 13.828125 -10.4375 14.109375 -10.71875 14.109375 -11.109375 L 14.109375 -11.890625 C 14.109375 -12.28125 14.390625 -12.5625 14.78125 -12.5625 L 15.5625 -12.5625 C 15.953125 -12.5625 16.234375 -12.28125 16.234375 -11.890625 L 16.234375 -0.671875 C 16.234375 -0.28125 16.515625 0 16.90625 0 L 25.078125 0 C 25.46875 0 25.75 -0.28125 25.75 -0.671875 L 25.75 -30.234375 C 25.75 -30.625 25.46875 -30.90625 25.078125 -30.90625 L 24.3125 -30.90625 C 23.921875 -30.90625 23.640625 -31.1875 23.640625 -31.578125 L 23.640625 -32.359375 C 23.640625 -32.734375 23.359375 -33.015625 22.96875 -33.015625 L 11.578125 -33.015625 C 11.1875 -33.015625 10.90625 -32.734375 10.90625 -32.359375 L 10.90625 -31.578125 C 10.90625 -31.1875 10.625 -30.90625 10.234375 -30.90625 L 9.875 -30.90625 C 9.484375 -30.90625 9.203125 -30.625 9.203125 -30.234375 L 9.203125 -29.453125 C 9.203125 -29.078125 8.921875 -28.796875 8.53125 -28.796875 L 7.765625 -28.796875 C 7.375 -28.796875 7.09375 -28.5 7.09375 -28.125 L 7.09375 -27.34375 C 7.09375 -26.953125 6.8125 -26.671875 6.421875 -26.671875 L 5.640625 -26.671875 C 5.25 -26.671875 4.96875 -26.390625 4.96875 -26 L 4.96875 -25.21875 C 4.96875 -24.84375 4.6875 -24.5625 4.296875 -24.5625 L 3.140625 -24.5625 C 2.75 -24.5625 2.46875 -24.28125 2.46875 -23.890625 Z M 12.671875 -14.46875 C 12.28125 -14.46875 12 -14.75 12 -15.140625 L 12 -28.125 C 12 -28.5 12.28125 -28.796875 12.671875 -28.796875 L 13.4375 -28.796875 C 13.828125 -28.796875 14.109375 -29.078125 14.109375 -29.453125 L 14.109375 -30.234375 C 14.109375 -30.625 14.390625 -30.90625 14.78125 -30.90625 L 15.5625 -30.90625 C 15.953125 -30.90625 16.234375 -30.625 16.234375 -30.234375 L 16.234375 -17.25 C 16.234375 -16.859375 15.953125 -16.578125 15.5625 -16.578125 L 14.78125 -16.578125 C 14.390625 -16.578125 14.109375 -16.296875 14.109375 -15.90625 L 14.109375 -15.140625 C 14.109375 -14.75 13.828125 -14.46875 13.4375 -14.46875 Z M 12.671875 -14.46875 "/></g></g></g><g fill="#5ce1e6" fill-opacity="1"><g transform="translate(150.161877, 69.765992)"><g/></g></g><g fill="#5ce1e6" fill-opacity="1"><g transform="translate(158.980164, 69.765992)"><g><path d="M 6.703125 -0.671875 C 6.703125 -0.28125 6.984375 0 7.375 0 L 22.9375 0 C 23.359375 0 23.640625 -0.28125 23.640625 -0.703125 L 23.640625 -1.40625 C 23.640625 -1.828125 23.921875 -2.109375 24.34375 -2.109375 L 25.046875 -2.109375 C 25.46875 -2.109375 25.75 -2.40625 25.75 -2.828125 L 25.75 -8.8125 C 25.75 -9.25 25.46875 -9.53125 25.046875 -9.53125 L 16.9375 -9.53125 C 16.515625 -9.53125 16.234375 -9.25 16.234375 -8.8125 L 16.234375 -2.78125 C 16.234375 -2.40625 15.953125 -2.109375 15.5625 -2.109375 L 14.78125 -2.109375 C 14.390625 -2.109375 14.109375 -2.40625 14.109375 -2.78125 L 14.109375 -3.5625 C 14.109375 -3.953125 13.828125 -4.234375 13.4375 -4.234375 L 12.671875 -4.234375 C 12.28125 -4.234375 12 -4.515625 12 -4.90625 L 12 -28.125 C 12 -28.5 12.28125 -28.796875 12.671875 -28.796875 L 13.4375 -28.796875 C 13.828125 -28.796875 14.109375 -29.078125 14.109375 -29.453125 L 14.109375 -30.234375 C 14.109375 -30.625 14.390625 -30.90625 14.78125 -30.90625 L 15.5625 -30.90625 C 15.953125 -30.90625 16.234375 -30.625 16.234375 -30.234375 L 16.234375 -26.3125 C 16.234375 -25.890625 16.515625 -25.609375 16.9375 -25.609375 L 17.671875 -25.609375 C 18.0625 -25.609375 18.34375 -25.328125 18.34375 -24.9375 L 18.34375 -24.203125 C 18.34375 -23.78125 18.625 -23.5 19.046875 -23.5 L 25.046875 -23.5 C 25.46875 -23.5 25.75 -23.78125 25.75 -24.203125 L 25.75 -30.203125 C 25.75 -30.625 25.46875 -30.90625 25.046875 -30.90625 L 23.8125 -30.90625 C 23.390625 -30.90625 23.109375 -31.1875 23.109375 -31.609375 L 23.109375 -32.3125 C 23.109375 -32.734375 22.828125 -33.015625 22.40625 -33.015625 L 7.375 -33.015625 C 6.984375 -33.015625 6.703125 -32.734375 6.703125 -32.359375 L 6.703125 -31.578125 C 6.703125 -31.1875 6.421875 -30.90625 6.03125 -30.90625 L 5.25 -30.90625 C 4.875 -30.90625 4.59375 -30.625 4.59375 -30.234375 L 4.59375 -29.453125 C 4.59375 -29.078125 4.296875 -28.796875 3.921875 -28.796875 L 3.140625 -28.796875 C 2.75 -28.796875 2.46875 -28.5 2.46875 -28.125 L 2.46875 -4.90625 C 2.46875 -4.515625 2.75 -4.234375 3.140625 -4.234375 L 3.921875 -4.234375 C 4.296875 -4.234375 4.59375 -3.953125 4.59375 -3.5625 L 4.59375 -2.78125 C 4.59375 -2.40625 4.875 -2.109375 5.25 -2.109375 L 6.03125 -2.109375 C 6.421875 -2.109375 6.703125 -1.828125 6.703125 -1.453125 Z M 6.703125 -0.671875 "/></g></g></g><g fill="#5ce1e6" fill-opacity="1"><g transform="translate(186.845959, 69.765992)"><g><path d="M 2.46875 -0.671875 C 2.46875 -0.28125 2.75 0 3.140625 0 L 11.328125 0 C 11.71875 0 12 -0.28125 12 -0.671875 L 12 -9.765625 C 12 -10.15625 12.28125 -10.4375 12.671875 -10.4375 L 13.4375 -10.4375 C 13.828125 -10.4375 14.109375 -10.71875 14.109375 -11.109375 L 14.109375 -11.890625 C 14.109375 -12.28125 14.390625 -12.5625 14.78125 -12.5625 L 15.5625 -12.5625 C 15.953125 -12.5625 16.234375 -12.28125 16.234375 -11.890625 L 16.234375 -0.671875 C 16.234375 -0.28125 16.515625 0 16.90625 0 L 25.078125 0 C 25.46875 0 25.75 -0.28125 25.75 -0.671875 L 25.75 -30.234375 C 25.75 -30.625 25.46875 -30.90625 25.078125 -30.90625 L 24.3125 -30.90625 C 23.921875 -30.90625 23.640625 -31.1875 23.640625 -31.578125 L 23.640625 -32.359375 C 23.640625 -32.734375 23.359375 -33.015625 22.96875 -33.015625 L 11.578125 -33.015625 C 11.1875 -33.015625 10.90625 -32.734375 10.90625 -32.359375 L 10.90625 -31.578125 C 10.90625 -31.1875 10.625 -30.90625 10.234375 -30.90625 L 9.875 -30.90625 C 9.484375 -30.90625 9.203125 -30.625 9.203125 -30.234375 L 9.203125 -29.453125 C 9.203125 -29.078125 8.921875 -28.796875 8.53125 -28.796875 L 7.765625 -28.796875 C 7.375 -28.796875 7.09375 -28.5 7.09375 -28.125 L 7.09375 -27.34375 C 7.09375 -26.953125 6.8125 -26.671875 6.421875 -26.671875 L 5.640625 -26.671875 C 5.25 -26.671875 4.96875 -26.390625 4.96875 -26 L 4.96875 -25.21875 C 4.96875 -24.84375 4.6875 -24.5625 4.296875 -24.5625 L 3.140625 -24.5625 C 2.75 -24.5625 2.46875 -24.28125 2.46875 -23.890625 Z M 12.671875 -14.46875 C 12.28125 -14.46875 12 -14.75 12 -15.140625 L 12 -28.125 C 12 -28.5 12.28125 -28.796875 12.671875 -28.796875 L 13.4375 -28.796875 C 13.828125 -28.796875 14.109375 -29.078125 14.109375 -29.453125 L 14.109375 -30.234375 C 14.109375 -30.625 14.390625 -30.90625 14.78125 -30.90625 L 15.5625 -30.90625 C 15.953125 -30.90625 16.234375 -30.625 16.234375 -30.234375 L 16.234375 -17.25 C 16.234375 -16.859375 15.953125 -16.578125 15.5625 -16.578125 L 14.78125 -16.578125 C 14.390625 -16.578125 14.109375 -16.296875 14.109375 -15.90625 L 14.109375 -15.140625 C 14.109375 -14.75 13.828125 -14.46875 13.4375 -14.46875 Z M 12.671875 -14.46875 "/></g></g></g><g fill="#5ce1e6" fill-opacity="1"><g transform="translate(215.064497, 69.765992)"><g><path d="M 9.5625 -0.671875 C 9.5625 -0.28125 9.84375 0 10.234375 0 L 18.421875 0 C 18.8125 0 19.09375 -0.28125 19.09375 -0.671875 L 19.09375 -30.265625 C 19.09375 -30.65625 19.375 -30.9375 19.75 -30.9375 L 20.5625 -30.9375 C 20.953125 -30.9375 21.234375 -30.65625 21.234375 -30.265625 L 21.234375 -26.28125 C 21.234375 -25.890625 21.515625 -25.609375 21.90625 -25.609375 L 22.6875 -25.609375 C 23.078125 -25.609375 23.359375 -25.328125 23.359375 -24.9375 L 23.359375 -24.171875 C 23.359375 -23.78125 23.640625 -23.5 24.03125 -23.5 L 26.921875 -23.5 C 27.3125 -23.5 27.59375 -23.78125 27.59375 -24.171875 L 27.59375 -32.359375 C 27.59375 -32.734375 27.3125 -33.015625 26.921875 -33.015625 L 1.734375 -33.015625 C 1.34375 -33.015625 1.0625 -32.734375 1.0625 -32.359375 L 1.0625 -24.171875 C 1.0625 -23.78125 1.34375 -23.5 1.734375 -23.5 L 4.625 -23.5 C 5.015625 -23.5 5.296875 -23.78125 5.296875 -24.171875 L 5.296875 -24.9375 C 5.296875 -25.328125 5.578125 -25.609375 5.96875 -25.609375 L 6.734375 -25.609375 C 7.125 -25.609375 7.40625 -25.890625 7.40625 -26.28125 L 7.40625 -30.265625 C 7.40625 -30.65625 7.6875 -30.9375 8.078125 -30.9375 L 8.890625 -30.9375 C 9.28125 -30.9375 9.5625 -30.65625 9.5625 -30.265625 Z M 9.5625 -0.671875 "/></g></g></g></svg>